<?xml version="1.0" encoding="utf-8"?>
<!-- Generator: Adobe Illustrator 25.2.1, SVG Export Plug-In . SVG Version: 6.00 Build 0)  -->
<svg version="1.1" id="Layer_1" xmlns="http://www.w3.org/2000/svg" xmlns:xlink="http://www.w3.org/1999/xlink" x="0px" y="0px"
	 viewBox="0 0 214.3 244.8" style="enable-background:new 0 0 214.3 244.8;" xml:space="preserve">
<style type="text/css">
	.st0{fill:#006D91;}
	.st1{fill:#F8F5F1;}
	.st2{enable-background:new    ;}
</style>
<g>
	<circle class="st0" cx="107.1" cy="148.8" r="94"/>
	<path class="st1" d="M107.1,244.8c-52.9,0-96-43.1-96-96s43.1-96,96-96c52.9,0,96,43.1,96,96S160,244.8,107.1,244.8z M107.1,56.8
		c-50.7,0-92,41.3-92,92c0,50.7,41.3,92,92,92s92-41.3,92-92C199.1,98.1,157.8,56.8,107.1,56.8z"/>
</g>
<g class="st2">
	<path class="st1" d="M24.2,8.8c1.6,0.5,3.2,1.2,4.8,2.1l1.2-1c0.8-0.6,1.5-1.1,2-1.3c0.5-0.2,1.1-0.4,1.8-0.4
		c0.8,0,1.4,0.2,1.9,0.5c0.5,0.4,0.7,0.9,0.7,1.5c0,0.3,0,0.6-0.1,0.9l-2.1,6.9c-0.2,0.8-0.5,1.4-0.9,1.7s-0.9,0.5-1.6,0.5
		c-0.7,0-1.4-0.2-1.9-0.7c-0.6-0.5-1.4-1.4-2.6-2.8c-1.2-1.3-2.2-2.3-3.2-2.8s-1.9-0.8-2.9-0.8c-0.7,0-1.4,0.2-1.9,0.7
		c-0.5,0.5-0.8,1.1-0.8,1.8c0,0.8,0.4,1.5,1.2,2.2c0.8,0.7,2.1,1.5,3.8,2.6c1.7,1,3.2,2,4.3,2.8c1.1,0.8,2.1,1.9,2.9,3.1
		s1.2,2.7,1.2,4.3c0,1-0.2,2.1-0.5,3.1c-0.8,2.7-2.4,4.7-4.7,6.1c-2.3,1.4-5,2.1-8.1,2.1c-2.3,0-4.2-0.3-5.8-0.8
		c-1.6-0.5-3.2-1.4-4.8-2.7L6.4,40c-0.8,0.7-1.5,1.2-2.1,1.4c-0.5,0.3-1.1,0.4-1.8,0.4c-0.8,0-1.4-0.2-1.8-0.6
		C0.2,40.9,0,40.4,0,39.7c0-0.3,0.1-0.7,0.2-1.1l2.5-7.5c0.3-0.9,0.6-1.5,1.1-1.9c0.5-0.4,1.1-0.6,1.8-0.6c0.8,0,1.5,0.3,2.1,0.8
		c0.6,0.5,1.4,1.5,2.4,2.9c1.1,1.5,2.1,2.6,3,3.2c0.9,0.6,2,0.9,3.3,0.9c0.9,0,1.6-0.1,2.1-0.4c0.5-0.3,0.8-0.7,1-1.4
		c0.1-0.2,0.1-0.4,0.1-0.8c0-0.8-0.4-1.5-1.2-2.2c-0.8-0.7-2-1.5-3.6-2.4c-1.7-1-3.1-2-4.2-2.8c-1.1-0.8-2-1.8-2.8-3.1
		c-0.8-1.2-1.2-2.7-1.2-4.4c0-1.2,0.2-2.3,0.6-3.5c0.7-2.3,2.1-4.2,4.3-5.6c2.2-1.4,4.7-2.1,7.5-2.1C20.9,8.1,22.6,8.4,24.2,8.8z"/>
	<path class="st1" d="M61,17.1c1.9,1.4,2.9,3.1,2.9,5.2c0,0.6-0.1,1.2-0.2,1.8c-0.5,2.2-1.9,3.8-4.2,4.7c-2.3,1-5,1.4-8.1,1.4
		c-1.6,0-3-0.1-4.4-0.3c0,1.7,0.4,3,1.4,3.7c1,0.7,2.3,1.1,4.1,1.1c0.8,0,1.6-0.1,2.3-0.3c0.7-0.2,1.7-0.5,2.8-0.8
		c0.9-0.3,1.6-0.5,1.9-0.5c0.4,0,0.6,0.2,0.6,0.7c0,1.2-0.4,2.4-1.3,3.7s-2.2,2.4-4,3.3c-1.8,0.9-3.9,1.4-6.4,1.4
		c-3.7,0-6.7-0.9-9.1-2.8c-2.4-1.9-3.6-4.6-3.6-8.2c0-1,0.1-2.2,0.4-3.5c0.8-4.1,2.7-7.2,5.5-9.3c2.8-2.1,6.3-3.1,10.3-3.1
		C56,15.1,59.1,15.7,61,17.1z M47.9,26.9c1.4,0,2.5-0.7,3.2-2c0.7-1.3,1.1-2.8,1.1-4.4c0-0.9-0.3-1.4-0.8-1.4
		c-0.4,0-0.8,0.3-1.3,0.9s-1,1.5-1.5,2.6c-0.5,1.2-0.9,2.6-1.2,4.2C47.5,26.9,47.6,26.9,47.9,26.9z"/>
	<path class="st1" d="M86.7,16.4c0.4,0.3,0.5,0.6,0.5,1.1c0,0.1,0,0.4-0.1,0.7c-0.4,1.5-1.4,2.2-3,2.2h-2.9l-3.8,12.4
		c-0.2,0.5-0.3,1-0.3,1.6c0,0.6,0.2,1,0.5,1.3c0.3,0.2,0.8,0.4,1.4,0.4c0.5,0,1.2-0.1,2-0.2c0.4-0.1,0.8-0.2,1.1-0.2
		c0.2,0,0.4,0.1,0.5,0.2c0.1,0.2,0.2,0.3,0.2,0.6c0,0.7-0.5,1.5-1.5,2.4c-1,1-2.4,1.8-4.1,2.5c-1.7,0.7-3.7,1-5.8,1
		c-2.3,0-4.1-0.5-5.5-1.6c-1.4-1-2.1-2.5-2.1-4.3c0-0.8,0.1-1.6,0.4-2.4l3.2-9.9c0.2-0.6,0.3-1,0.3-1.4c0-0.7-0.2-1.2-0.5-1.7
		c-0.3-0.5-0.8-1-1.3-1.5c-0.5-0.5-0.9-0.9-1.1-1.2c-0.2-0.3-0.3-0.7-0.2-1.1c0.1-0.4,0.4-0.8,0.9-1c0.4-0.2,1.1-0.4,2.1-0.4h2.8
		l3.2-3.2c1.1-1.1,2.1-1.9,3-2.3c0.9-0.4,2.1-0.7,3.6-0.7c2.1,0,3.2,0.8,3.2,2.4c0,0.5-0.1,1-0.2,1.4L82.6,16h2.7
		C85.9,16,86.4,16.1,86.7,16.4z"/>
	<path class="st1" d="M128.7,9.5c1.7,0.7,3,1.6,3.9,2.8s1.3,2.5,1.3,4.1c0,0.9-0.1,1.7-0.4,2.4c-1,3.4-3.8,5.5-8.4,6.4
		c1.6,0.5,2.9,1.2,3.8,2.3c0.9,1.1,1.4,2.4,1.4,4c0,0.7-0.1,1.6-0.4,2.6c-0.7,2.6-2.2,4.5-4.4,5.8c-2.2,1.3-5.4,1.9-9.4,1.9H95.3
		c-0.7,0-1.2-0.1-1.6-0.4c-0.4-0.2-0.6-0.6-0.6-1c0-0.2,0.1-0.4,0.2-0.7c0.1-0.4,0.4-0.7,0.7-0.9c0.3-0.2,0.5-0.3,0.6-0.4
		c0.5-0.3,1-0.7,1.3-1c0.3-0.4,0.6-0.9,0.9-1.7l6.1-21.6c0.1-0.4,0.2-0.9,0.2-1.3c0-0.4-0.1-0.7-0.2-0.9c-0.1-0.3-0.3-0.5-0.5-0.9
		c-0.3-0.4-0.5-0.8-0.5-1.1c0-0.1,0-0.3,0.1-0.6c0.1-0.4,0.4-0.7,0.9-0.9c0.5-0.2,1.1-0.3,2.1-0.3h17.9
		C125.1,8.4,127.1,8.8,128.7,9.5z M117.2,30.1c0-1.8-1-2.7-3.1-2.7h-2.5l-2.9,9.9h2.6c1.4,0,2.6-0.4,3.5-1.1c0.9-0.7,1.6-2,2.1-3.9
		C117.1,31.5,117.2,30.8,117.2,30.1z M120.9,15.6c0-1.7-1-2.6-3-2.6h-2.3l-2.7,9.4h2.2c1.4,0,2.5-0.3,3.3-1c0.8-0.7,1.5-1.9,2-3.7
		C120.8,16.9,120.9,16.2,120.9,15.6z"/>
	<path class="st1" d="M152.8,5.9c0.9,0.7,1.4,1.7,1.4,3c0,0.7-0.1,1.5-0.4,2.2l-7.9,25.5c-0.1,0.4-0.1,0.8-0.1,1.1
		c0,0.4,0.1,0.8,0.2,1c0.2,0.3,0.4,0.5,0.7,0.7c0.2,0.2,0.4,0.4,0.5,0.6s0.1,0.3,0,0.6c-0.2,0.4-0.5,0.8-1,1
		c-0.5,0.2-1.3,0.3-2.3,0.3h-11.4c-0.9,0-1.5-0.1-1.9-0.4c-0.4-0.3-0.5-0.7-0.4-1.1c0.1-0.4,0.5-0.8,1.1-1.1c0.5-0.3,0.9-0.6,1.3-1
		c0.3-0.4,0.6-1,0.9-1.8l7.6-25c0.1-0.3,0.2-0.6,0.2-0.8c0-0.4-0.1-0.7-0.3-0.9c-0.2-0.2-0.4-0.5-0.7-0.7c-0.3-0.3-0.6-0.5-0.7-0.7
		s-0.2-0.5-0.1-0.8c0.2-0.8,1.3-1.4,3.2-2c1.9-0.6,3.9-0.9,6-0.9C150.4,4.8,151.9,5.2,152.8,5.9z"/>
	<path class="st1" d="M180.6,34.9c-0.1,0.3-0.1,0.5-0.1,0.6c0,0.2,0.1,0.4,0.2,0.6c0.1,0.1,0.3,0.2,0.5,0.2c0.4,0,0.7-0.2,1-0.5
		c0.3-0.4,0.5-0.5,0.6-0.5c0.2,0,0.3,0.1,0.4,0.3c0.1,0.2,0.2,0.5,0.2,0.8c0,0.9-0.3,1.9-1,2.8c-0.7,0.9-1.7,1.7-3,2.3
		c-1.3,0.6-2.7,0.9-4.3,0.9c-2,0-3.5-0.4-4.7-1.2c-1.2-0.8-1.9-1.9-2.3-3.2c-1.2,1.3-2.5,2.3-4,3c-1.5,0.7-2.9,1-4.4,1
		c-2.3,0-4.3-0.6-5.9-1.7c-1.6-1.2-2.4-2.8-2.4-4.8c0-0.9,0.2-1.9,0.5-2.9l3.2-10.5c0.1-0.3,0.2-0.6,0.2-0.8c0-0.4-0.1-0.7-0.3-0.9
		c-0.2-0.2-0.4-0.4-0.8-0.7c-0.3-0.3-0.6-0.5-0.7-0.7c-0.1-0.2-0.2-0.5,0-0.8c0.2-0.8,1.3-1.4,3.2-2c1.9-0.6,3.9-0.9,6-0.9
		c1.9,0,3.4,0.4,4.3,1.1s1.4,1.7,1.4,3c0,0.8-0.1,1.5-0.4,2.2L164.8,32c-0.1,0.4-0.2,0.7-0.2,1.1c0,0.5,0.1,0.8,0.4,1.1
		c0.3,0.2,0.6,0.4,1.1,0.4c0.6,0,1.2-0.2,1.6-0.6c0.4-0.4,0.8-1,1.2-1.9l3.1-10.1c0.1-0.3,0.2-0.6,0.2-0.8c0-0.4-0.1-0.7-0.3-0.9
		c-0.2-0.2-0.4-0.4-0.7-0.7c-0.3-0.3-0.6-0.5-0.7-0.7s-0.1-0.5,0-0.8c0.2-0.8,1.2-1.4,3.1-2c1.9-0.6,3.9-0.9,6-0.9
		c1.9,0,3.4,0.4,4.3,1.1s1.4,1.7,1.4,3c0,0.6-0.1,1.4-0.4,2.3L180.6,34.9z"/>
	<path class="st1" d="M211.4,17.1c1.9,1.4,2.9,3.1,2.9,5.2c0,0.6-0.1,1.2-0.2,1.8c-0.5,2.2-1.9,3.8-4.2,4.7c-2.3,1-5,1.4-8.1,1.4
		c-1.6,0-3-0.1-4.4-0.3c0,1.7,0.4,3,1.4,3.7c1,0.7,2.3,1.1,4.1,1.1c0.8,0,1.6-0.1,2.3-0.3c0.7-0.2,1.7-0.5,2.8-0.8
		c0.9-0.3,1.6-0.5,1.9-0.5c0.4,0,0.6,0.2,0.6,0.7c0,1.2-0.4,2.4-1.3,3.7c-0.9,1.3-2.2,2.4-4,3.3s-3.9,1.4-6.4,1.4
		c-3.7,0-6.7-0.9-9.1-2.8c-2.4-1.9-3.6-4.6-3.6-8.2c0-1,0.1-2.2,0.4-3.5c0.8-4.1,2.7-7.2,5.5-9.3c2.8-2.1,6.3-3.1,10.3-3.1
		C206.4,15.1,209.5,15.7,211.4,17.1z M198.3,26.9c1.4,0,2.5-0.7,3.2-2c0.7-1.3,1.1-2.8,1.1-4.4c0-0.9-0.3-1.4-0.8-1.4
		c-0.4,0-0.8,0.3-1.3,0.9c-0.5,0.6-1,1.5-1.5,2.6c-0.5,1.2-0.9,2.6-1.2,4.2C197.9,26.9,198.1,26.9,198.3,26.9z"/>
</g>
<g>
	<path class="st0" d="M133.4,138L185,97.8c5.6-4.4,6.6-12.4,2.2-18l0,0c-4.4-5.6-12.4-6.6-18-2.2l-51.5,40.2
		c-5.6,4.4-6.6,12.4-2.2,18l0,0C119.8,141.4,127.9,142.4,133.4,138z"/>
	<path class="st1" d="M125.6,142.7c-0.6,0-1.2,0-1.8-0.1c-3.9-0.5-7.5-2.5-9.9-5.6c-2.4-3.1-3.5-7-3-10.9c0.5-3.9,2.5-7.4,5.6-9.9
		L168,76c6.4-5,15.7-3.9,20.8,2.5c5,6.4,3.9,15.7-2.5,20.8l-51.6,40.2C132,141.6,128.9,142.7,125.6,142.7z M177.1,76.9
		c-2.3,0-4.7,0.7-6.6,2.3l-51.5,40.2c-2.3,1.8-3.7,4.4-4.1,7.2s0.4,5.7,2.2,8c1.8,2.3,4.3,3.8,7.2,4.1c2.9,0.3,5.7-0.4,7.9-2.2l0,0
		l51.6-40.2c4.7-3.7,5.5-10.5,1.9-15.2C183.5,78.3,180.3,76.9,177.1,76.9z"/>
</g>
</svg>
