<?xml version="1.0" encoding="utf-8"?>
<!-- Generator: Adobe Illustrator 25.2.1, SVG Export Plug-In . SVG Version: 6.00 Build 0)  -->
<svg version="1.1" id="Layer_1" xmlns="http://www.w3.org/2000/svg" xmlns:xlink="http://www.w3.org/1999/xlink" x="0px" y="0px"
	 viewBox="0 0 298.3 119.6" style="enable-background:new 0 0 298.3 119.6;" xml:space="preserve">
<style type="text/css">
	.st0{fill:#F5A25E;}
	.st1{fill:#F8F5F1;}
	.st2{enable-background:new    ;}
</style>
<g>
	<path class="st0" d="M238.5,117.6H59.8C27.9,117.6,2,91.7,2,59.8l0,0C2,27.9,27.9,2,59.8,2h178.7c31.9,0,57.8,25.9,57.8,57.8l0,0
		C296.3,91.7,270.4,117.6,238.5,117.6z"/>
	<path class="st1" d="M238.5,119.6H59.8C26.8,119.6,0,92.8,0,59.8S26.8,0,59.8,0h178.7c33,0,59.8,26.8,59.8,59.8
		S271.5,119.6,238.5,119.6z M59.8,4C29,4,4,29,4,59.8c0,30.8,25,55.8,55.8,55.8h178.7c30.8,0,55.8-25,55.8-55.8
		c0-30.8-25-55.8-55.8-55.8H59.8z"/>
</g>
<g class="st2">
	<path class="st1" d="M63.1,41c0,0.2,0,0.4,0,0.5c-0.1,0.3-0.2,0.6-0.5,0.8s-0.5,0.4-0.9,0.6c-0.5,0.3-0.9,0.6-1.2,1
		c-0.3,0.4-0.6,0.9-0.9,1.7l-6.2,22.2c-0.6,2-1.3,3.4-2.1,4.2s-2,1.2-3.5,1.2c-1.3,0-2.4-0.4-3.3-1.2c-0.9-0.8-1.7-2-2.5-3.6
		l-7.5-15.9l-4.2,14.6c-0.1,0.4-0.1,0.8-0.1,1.2c0,0.4,0.1,0.8,0.2,1.1s0.4,0.6,0.6,0.9c0.4,0.4,0.5,0.8,0.5,1.1c0,0.2,0,0.4,0,0.5
		c-0.1,0.5-0.4,0.8-0.9,1c-0.5,0.2-1.2,0.3-2.1,0.3H23c-1.4,0-2-0.4-2-1.3c0-0.2,0-0.4,0-0.5c0.1-0.3,0.2-0.6,0.5-0.8
		c0.2-0.2,0.5-0.4,0.9-0.6c0.5-0.3,0.9-0.6,1.2-1c0.3-0.4,0.6-0.9,0.8-1.7l6.4-22.4L29.9,43c-0.3-0.7-0.5-1.2-0.5-1.8
		c0-1,0.7-1.5,2-1.5h7.4c1.1,0,1.9,0.2,2.4,0.7c0.6,0.5,1.1,1.3,1.8,2.6l7.3,14.7l3.5-12.1c0.1-0.5,0.1-0.8,0.1-1.1
		c0-0.4-0.1-0.8-0.2-1.1s-0.4-0.6-0.6-0.9c-0.4-0.4-0.5-0.8-0.5-1.1c0-0.2,0-0.4,0-0.5c0.1-0.5,0.4-0.8,0.9-1
		c0.5-0.2,1.2-0.3,2.1-0.3H61C62.4,39.7,63.1,40.2,63.1,41z"/>
	<path class="st1" d="M84.6,48.4c1.9,1.3,2.9,3.1,2.9,5.2c0,0.6-0.1,1.2-0.2,1.8c-0.5,2.2-1.9,3.8-4.2,4.7c-2.3,1-5,1.4-8.1,1.4
		c-1.6,0-3-0.1-4.4-0.3c0,1.7,0.4,3,1.4,3.7s2.3,1,4.1,1c0.8,0,1.6-0.1,2.3-0.3c0.7-0.2,1.7-0.5,2.8-0.8c0.9-0.3,1.6-0.5,1.9-0.5
		c0.4,0,0.5,0.2,0.5,0.6c0,1.2-0.4,2.4-1.3,3.7s-2.2,2.4-4,3.3c-1.8,0.9-3.9,1.4-6.4,1.4c-3.7,0-6.7-0.9-9.1-2.8
		c-2.4-1.9-3.6-4.6-3.6-8.1c0-1,0.1-2.2,0.4-3.5c0.8-4.1,2.7-7.2,5.5-9.3c2.8-2.1,6.2-3.1,10.3-3.1C79.6,46.3,82.7,47,84.6,48.4z
		 M71.5,58.2c1.4,0,2.5-0.7,3.2-2c0.7-1.3,1.1-2.8,1-4.4c0-0.9-0.3-1.4-0.8-1.4c-0.4,0-0.8,0.3-1.3,0.9s-1,1.5-1.5,2.6
		c-0.5,1.2-0.9,2.5-1.2,4.1C71.1,58.2,71.3,58.2,71.5,58.2z"/>
	<path class="st1" d="M130.3,62.8c-2.1,3.1-4.7,5.7-7.8,7.7c-3.1,2-6.2,3-9.3,3c-2.4,0-4.4-0.4-6.1-1.2c-1.7-0.8-2.8-2-3.2-3.6
		c-1.2,1.5-2.6,2.6-4.1,3.4c-1.5,0.8-3.1,1.2-4.7,1.2c-2.3,0-4.1-0.6-5.5-1.7c-1.4-1.1-2.1-2.8-2.1-4.9c0-1.1,0.2-2.3,0.5-3.5
		l2.8-9.8c0.1-0.3,0.1-0.5,0.1-0.6c0-0.3-0.1-0.6-0.2-0.9c-0.2-0.2-0.4-0.5-0.7-0.8c-0.5-0.4-0.8-0.8-0.8-1.1c0-0.5,0.2-1,0.8-1.5
		c0.6-0.5,1.4-1,2.5-1.3c1.1-0.4,2.3-0.5,3.7-0.5c2.2,0,4,0.5,5.2,1.6c1.2,1.1,1.9,2.5,1.9,4.2c0,0.8-0.1,1.6-0.4,2.5l-2.6,8.5
		c-0.1,0.5-0.2,0.8-0.2,0.9c0,0.4,0.1,0.8,0.4,1c0.2,0.2,0.6,0.4,1,0.4c0.6,0,1.1-0.2,1.5-0.6c0.4-0.4,0.8-1.1,1.2-2l2.9-9.8
		c0.1-0.3,0.1-0.5,0.1-0.6c0-0.3-0.1-0.6-0.2-0.9c-0.2-0.2-0.4-0.5-0.7-0.8c-0.5-0.4-0.8-0.8-0.8-1.1c0-0.5,0.2-1,0.9-1.5
		c0.6-0.5,1.4-1,2.5-1.3c1.1-0.4,2.3-0.5,3.7-0.5c2.3,0,4,0.5,5.2,1.6c1.2,1.1,1.9,2.5,1.9,4.2c0,0.7-0.1,1.5-0.4,2.5L116,65.6
		c-0.1,0.2-0.1,0.4-0.1,0.8c0,0.4,0.1,0.8,0.5,1c0.3,0.2,0.7,0.4,1.2,0.4c0.7,0,1.6-0.3,2.6-1c1-0.6,2-1.6,2.9-2.8
		c1-1.2,1.7-2.7,2.3-4.3c-1.3-1.2-2.3-2.3-2.8-3.4c-0.5-1.1-0.8-2.3-0.8-3.5c0-1.7,0.5-3.1,1.4-4.3c0.9-1.2,2.3-1.8,4-1.8
		c1.8,0,3.2,0.6,4.4,1.9c1.2,1.3,1.8,3,1.8,5.2C133.4,56.7,132.4,59.7,130.3,62.8z"/>
	<path class="st1" d="M186.3,41c0.9,1,1.4,2.2,1.4,3.6c0,0.2,0,0.6-0.1,1.1c-0.3,1.6-0.9,2.8-1.9,3.5c-1,0.8-2.1,1.1-3.4,1.1
		c-0.9,0-1.6-0.1-2.2-0.4c-0.6-0.3-1.2-0.7-1.7-1.4l-8.2,10.8l-2.3,7.7c-0.1,0.2-0.1,0.5-0.1,0.8c0,0.5,0.1,0.9,0.3,1.2
		c0.2,0.3,0.6,0.7,1,1c0.4,0.3,0.6,0.6,0.8,0.9s0.2,0.5,0.1,0.8c-0.1,0.5-0.5,0.8-1,1c-0.5,0.2-1.2,0.3-2.1,0.3h-12.6
		c-0.9,0-1.5-0.2-1.9-0.5c-0.4-0.3-0.6-0.8-0.4-1.3c0.1-0.3,0.2-0.5,0.4-0.7c0.2-0.2,0.5-0.4,0.9-0.7c0.5-0.3,0.9-0.6,1.2-1
		s0.6-0.9,0.9-1.7l2.3-7.8L153,46.2c-0.3-1-0.7-1.7-1.2-2.2c-0.4-0.5-1-1-1.6-1.5c-0.4-0.3-0.6-0.5-0.8-0.7
		c-0.2-0.2-0.2-0.4-0.2-0.7c0-0.4,0.2-0.7,0.5-1s0.9-0.4,1.5-0.4h13.3c1.2,0,2,0.1,2.4,0.3c0.4,0.2,0.7,0.5,0.7,1
		c0,0.3-0.1,0.6-0.2,0.8c-0.1,0.2-0.3,0.5-0.6,0.8c-0.3,0.4-0.5,0.7-0.7,1s-0.2,0.6-0.2,0.9c0,0.1,0,0.3,0.1,0.7l2.3,8.8l6.3-9
		c1.4-1.9,2.7-3.3,3.9-4.2c1.2-0.8,2.6-1.2,4.1-1.2C184.2,39.5,185.4,40,186.3,41z"/>
	<path class="st1" d="M211.6,49.3c2.2,1.8,3.2,4.2,3.2,7.2c0,1-0.1,2.1-0.4,3.3c-0.6,2.7-1.8,5.1-3.5,7.2c-1.7,2-3.9,3.6-6.4,4.8
		c-2.5,1.1-5.2,1.7-8.2,1.7c-4.6,0-8.1-0.9-10.3-2.8c-2.2-1.8-3.3-4.3-3.3-7.4c0-1,0.1-2.2,0.4-3.4c0.6-2.6,1.8-4.9,3.6-6.9
		c1.8-2,4-3.6,6.5-4.7c2.6-1.1,5.3-1.7,8.3-1.7C206.1,46.6,209.5,47.5,211.6,49.3z M199.2,52.9c-0.8,1.2-1.7,3.6-2.8,7.1
		c-1.1,3.5-1.6,5.9-1.6,7.3c0,0.7,0.1,1.2,0.4,1.5c0.2,0.2,0.5,0.4,1,0.4c0.7,0.1,1.4-0.5,2.2-1.8c0.8-1.3,1.7-3.7,2.8-7.4
		c1-3.2,1.5-5.6,1.5-7.1c0-0.7-0.1-1.2-0.3-1.4s-0.5-0.4-0.9-0.4C200.7,51,200,51.7,199.2,52.9z"/>
	<path class="st1" d="M244.1,48.3c1.1,1.1,1.7,2.5,1.7,4.2c0,0.6-0.1,1.2-0.2,1.8c-0.3,1.4-1,2.4-1.9,3.1c-0.9,0.7-2,1.1-3.3,1.1
		c-1.3,0-2.2-0.3-2.9-0.9c-0.7-0.6-1.2-1.4-1.7-2.4c-0.3-0.6-0.5-1-0.8-1.2c-0.2-0.3-0.5-0.4-0.8-0.4c-0.3,0-0.6,0.1-0.9,0.4
		s-0.5,0.7-0.7,1.4l-3.8,12.5c-0.1,0.2-0.1,0.4-0.1,0.8c0,0.4,0.1,0.8,0.4,1.1s0.6,0.6,1,0.8c0.4,0.3,0.7,0.5,0.8,0.6
		c0.1,0.2,0.2,0.4,0.2,0.7c-0.1,0.4-0.3,0.8-0.7,1s-1.1,0.3-2.1,0.3h-12.8c-0.9,0-1.5-0.1-1.9-0.4c-0.4-0.3-0.5-0.7-0.4-1.1
		c0.1-0.4,0.5-0.8,1-1c0.5-0.3,0.9-0.6,1.2-1c0.3-0.4,0.6-1,0.9-1.8l4.4-14.4c0.1-0.2,0.1-0.4,0.1-0.7c0-0.4-0.1-0.6-0.2-0.8
		c-0.1-0.2-0.4-0.5-0.7-0.8c-0.3-0.3-0.6-0.5-0.7-0.7c-0.1-0.2-0.1-0.5,0-0.8c0.2-0.8,1.2-1.4,3.2-2c1.9-0.6,3.9-0.9,5.9-0.9
		c1.4,0,2.5,0.3,3.4,0.9c0.9,0.6,1.5,1.5,1.8,2.6c1.6-2.4,3.7-3.5,6.3-3.5C241.5,46.6,242.9,47.2,244.1,48.3z"/>
	<path class="st1" d="M277.7,48.2c1.2,1,1.7,2.3,1.7,3.8c0,1.6-0.5,2.8-1.5,3.8c-1,0.9-2.2,1.3-3.8,1.3c-1.4,0-2.5-0.4-3.2-1.1
		c-0.8-0.7-1.1-1.5-1.1-2.4c-0.3-0.1-0.6,0.1-0.8,0.4c-0.2,0.3-0.5,1-0.8,2c-0.2,0.6-0.5,1.2-1,1.8c2.3,0.2,4,0.7,5,1.5
		c1.1,0.9,1.7,2,1.7,3.3c0,0.7-0.1,1.3-0.3,2l-0.4,1.5c-0.1,0.2-0.1,0.4-0.1,0.7c0,0.5,0.2,0.7,0.6,0.7c0.4,0,0.7-0.2,1-0.5
		c0.3-0.3,0.5-0.5,0.6-0.5c0.2,0,0.3,0.1,0.4,0.3c0.1,0.2,0.2,0.5,0.2,0.8c0,1-0.3,1.9-0.9,2.8c-0.6,0.9-1.5,1.7-2.8,2.2
		s-2.8,0.9-4.5,0.9c-2.1,0-3.9-0.5-5.3-1.6c-1.4-1.1-2.1-2.5-2.1-4.2c0-0.6,0.1-1.4,0.4-2.2l1-2.5c0.2-0.6,0.2-1,0.2-1.3
		c0-0.4-0.1-0.7-0.4-0.9s-0.7-0.3-1.3-0.3h-1l-2.2,7.3c-0.1,0.4-0.2,0.8-0.2,1c0,0.4,0.1,0.8,0.2,1c0.2,0.2,0.4,0.5,0.7,0.7
		c0.2,0.2,0.4,0.4,0.5,0.6c0.1,0.2,0.1,0.3,0,0.6c-0.2,0.4-0.5,0.8-1,1S256,73,254.9,73h-11.4c-0.9,0-1.5-0.1-1.9-0.4
		c-0.4-0.3-0.5-0.7-0.4-1.1c0.1-0.4,0.5-0.8,1-1c0.5-0.3,0.9-0.6,1.2-1c0.3-0.4,0.6-1,0.9-1.8l7.6-24.9c0.1-0.3,0.2-0.5,0.2-0.8
		c0-0.4-0.1-0.7-0.3-0.9c-0.2-0.2-0.4-0.5-0.7-0.7c-0.3-0.3-0.6-0.5-0.7-0.7c-0.1-0.2-0.2-0.5-0.1-0.8c0.2-0.8,1.2-1.4,3.2-2
		s3.9-0.9,6-0.9c1.9,0,3.3,0.4,4.2,1.1c0.9,0.7,1.3,1.7,1.3,3c0,0.8-0.1,1.5-0.3,2.2l-4.4,14.2h1.7c0.7,0,1.2-0.2,1.6-0.6
		c0.4-0.4,0.7-1,1-1.8c0.8-2.5,1.9-4.4,3.2-5.7s3.1-2,5.3-2C275,46.6,276.6,47.1,277.7,48.2z"/>
</g>
</svg>
