<?xml version="1.0" encoding="utf-8"?>
<!-- Generator: Adobe Illustrator 25.2.1, SVG Export Plug-In . SVG Version: 6.00 Build 0)  -->
<svg version="1.1" id="Layer_1" xmlns="http://www.w3.org/2000/svg" xmlns:xlink="http://www.w3.org/1999/xlink" x="0px" y="0px"
	 viewBox="0 0 298.3 119.6" style="enable-background:new 0 0 298.3 119.6;" xml:space="preserve">
<style type="text/css">
	.st0{fill:#389393;}
	.st1{fill:#F8F5F1;}
	.st2{enable-background:new    ;}
</style>
<g>
	<path class="st0" d="M238.5,117.6H59.8C27.9,117.6,2,91.7,2,59.8l0,0C2,27.9,27.9,2,59.8,2h178.7c31.9,0,57.8,25.9,57.8,57.8l0,0
		C296.3,91.7,270.4,117.6,238.5,117.6z"/>
	<path class="st1" d="M238.5,119.6H59.8C26.8,119.6,0,92.8,0,59.8S26.8,0,59.8,0h178.7c33,0,59.8,26.8,59.8,59.8
		S271.5,119.6,238.5,119.6z M59.8,4C29,4,4,29,4,59.8c0,30.8,25,55.8,55.8,55.8h178.7c30.8,0,55.8-25,55.8-55.8
		c0-30.8-25-55.8-55.8-55.8H59.8z"/>
</g>
<g class="st2">
	<path class="st1" d="M112,43.7c1.9,1.5,2.9,3.6,2.9,6.1c0,1-0.1,2.1-0.5,3.2c-0.9,3.3-2.8,5.8-5.5,7.4c-2.8,1.6-6.2,2.4-10.4,2.4
		h-5.1l-1.7,6c-0.1,0.2-0.1,0.5-0.1,0.8c0,0.5,0.1,0.8,0.3,1.1c0.2,0.3,0.5,0.7,1,1c0.4,0.3,0.6,0.6,0.8,0.8
		c0.1,0.2,0.2,0.4,0.2,0.6c0,0.6-0.3,1-0.8,1.2c-0.5,0.2-1.3,0.3-2.4,0.3H78.1c-0.9,0-1.5-0.2-2-0.5c-0.4-0.3-0.6-0.8-0.5-1.3
		c0.1-0.3,0.2-0.5,0.4-0.7c0.2-0.2,0.5-0.4,0.8-0.6c0.6-0.3,1-0.7,1.4-1c0.3-0.4,0.6-0.9,0.8-1.7l6.1-21.5c0.1-0.4,0.2-0.8,0.2-1.2
		c0-0.4-0.1-0.7-0.2-0.9c-0.1-0.2-0.3-0.5-0.5-0.9c-0.3-0.4-0.4-0.8-0.4-1c0-0.1,0-0.3,0.1-0.5c0.1-0.4,0.4-0.7,0.9-0.9
		c0.4-0.2,1.1-0.3,2.1-0.3h16.6C107.4,41.4,110.1,42.1,112,43.7z M103.1,48.8c0-1.9-0.9-2.9-2.7-2.9h-2.2l-3.5,12.3h2.2
		c1.4,0,2.5-0.4,3.4-1.3c0.9-0.9,1.7-2.5,2.3-4.9C102.9,50.8,103.1,49.7,103.1,48.8z"/>
	<path class="st1" d="M138.1,50.3c2.3,1.4,3.5,3.6,3.5,6.5c0,1.1-0.2,2.3-0.6,3.8l-2,6.9c0,0.1-0.1,0.3-0.1,0.5
		c0,0.5,0.2,0.8,0.7,0.8c0.4,0,0.7-0.2,1-0.5c0.3-0.4,0.5-0.5,0.6-0.5c0.2,0,0.3,0.1,0.4,0.4c0.1,0.2,0.2,0.5,0.2,0.8
		c0,0.9-0.3,1.8-1,2.8c-0.7,0.9-1.7,1.7-2.9,2.3s-2.5,0.9-4,0.9c-1.7,0-3.2-0.3-4.4-1c-1.2-0.6-2.1-1.6-2.6-2.8
		c-1,1.2-2.2,2.1-3.5,2.8c-1.4,0.7-2.8,1-4.4,1c-1.8,0-3.2-0.3-4.5-1c-1.2-0.7-2.1-1.6-2.7-2.7c-0.6-1.1-0.9-2.2-0.9-3.4
		c0-0.5,0-1,0.1-1.5c0.5-2.3,1.7-4,3.5-5.2c1.8-1.2,3.9-1.8,6.4-1.8c2.8,0,5.5,0.4,8.1,1.3l1.2-3.3c0.4-1.4,0.6-2.5,0.6-3.2
		c0-0.8-0.3-1.4-0.8-1.8s-1.3-0.6-2.3-0.6c0.2,0.5,0.3,1.1,0.3,1.6c0,1.2-0.5,2.3-1.4,3.2c-0.9,0.9-2.3,1.3-4,1.3
		c-1.6,0-2.9-0.4-3.8-1.1c-0.9-0.7-1.4-1.6-1.4-2.7c0-1.7,0.9-3,2.8-4.1c1.9-1.1,4.7-1.7,8.6-1.7C132.7,48.2,135.8,48.9,138.1,50.3z
		 M123.8,64.4c-0.6,0.7-0.9,1.5-0.9,2.3c0,0.5,0.1,1,0.4,1.3s0.6,0.5,1.1,0.5c0.4,0,0.9-0.2,1.4-0.5c0.5-0.3,0.9-0.9,1.1-1.6l1.1-3
		c-0.6-0.1-1.2-0.1-1.9-0.1C125.2,63.4,124.4,63.7,123.8,64.4z"/>
	<path class="st1" d="M172.8,49.9c1.1,1.1,1.7,2.5,1.7,4.2c0,0.6-0.1,1.2-0.2,1.8c-0.3,1.4-1,2.4-1.9,3.1c-0.9,0.7-2,1.1-3.3,1.1
		c-1.3,0-2.2-0.3-2.9-0.9c-0.7-0.6-1.2-1.4-1.7-2.4c-0.3-0.6-0.5-1-0.8-1.2s-0.5-0.4-0.8-0.4c-0.3,0-0.6,0.1-0.9,0.4
		s-0.5,0.7-0.7,1.4l-3.8,12.5c-0.1,0.2-0.1,0.4-0.1,0.8c0,0.4,0.1,0.8,0.4,1.1s0.6,0.6,1,0.8c0.4,0.3,0.7,0.5,0.8,0.6
		c0.1,0.2,0.2,0.4,0.2,0.7c-0.1,0.4-0.3,0.8-0.7,1s-1.1,0.3-2.1,0.3H144c-0.9,0-1.5-0.1-1.9-0.4c-0.4-0.3-0.5-0.7-0.4-1.1
		c0.1-0.4,0.5-0.8,1-1c0.5-0.3,0.9-0.6,1.2-1c0.3-0.4,0.6-1,0.9-1.8l4.5-14.5c0.1-0.2,0.1-0.4,0.1-0.7c0-0.4-0.1-0.6-0.2-0.8
		s-0.4-0.5-0.7-0.8c-0.3-0.3-0.6-0.5-0.7-0.7c-0.1-0.2-0.1-0.5,0-0.8c0.2-0.8,1.2-1.4,3.1-2c1.9-0.6,3.9-0.9,6-0.9
		c1.4,0,2.5,0.3,3.4,0.9c0.9,0.6,1.5,1.5,1.8,2.6c1.6-2.4,3.7-3.5,6.3-3.5C170.2,48.2,171.7,48.8,172.8,49.9z"/>
	<path class="st1" d="M190.1,49.3c0.9,0.7,1.3,1.7,1.3,3c0,0.8-0.1,1.5-0.3,2.2l-4.6,15c-0.1,0.4-0.1,0.8-0.1,1c0,0.4,0.1,0.8,0.2,1
		c0.2,0.2,0.4,0.5,0.7,0.7c0.2,0.2,0.4,0.4,0.5,0.6c0.1,0.2,0.1,0.3,0,0.6c-0.2,0.4-0.5,0.8-1,1s-1.3,0.3-2.3,0.3h-11.4
		c-0.9,0-1.5-0.1-1.9-0.4c-0.4-0.3-0.5-0.7-0.4-1.1c0.1-0.4,0.5-0.8,1-1c0.5-0.3,0.9-0.6,1.2-1c0.3-0.4,0.6-1,0.8-1.8l4.4-14.5
		c0.1-0.3,0.1-0.5,0.1-0.8c0-0.4-0.1-0.7-0.2-0.9s-0.4-0.4-0.8-0.7c-0.3-0.3-0.6-0.5-0.7-0.7c-0.1-0.2-0.2-0.5-0.1-0.8
		c0.2-0.8,1.2-1.4,3.2-2c1.9-0.6,3.9-0.9,6-0.9C187.8,48.2,189.2,48.6,190.1,49.3z M192.4,38.4c0.9,0.8,1.3,1.9,1.3,3.1
		c0,0.9-0.2,1.7-0.7,2.5s-1.1,1.5-1.9,2c-0.8,0.5-1.7,0.8-2.7,0.8c-1.3,0-2.3-0.4-3.2-1.3c-0.8-0.8-1.3-1.9-1.3-3.2
		c0-0.8,0.2-1.7,0.7-2.5c0.4-0.8,1-1.5,1.8-2c0.8-0.5,1.7-0.8,2.8-0.8C190.5,37.2,191.6,37.6,192.4,38.4z"/>
	<path class="st1" d="M214.6,48.5c2,0.5,3.6,1.2,4.7,2.1c1.1,0.9,1.6,1.9,1.6,3c0,1.2-0.5,2.1-1.4,2.8c-0.9,0.7-2.2,1.1-3.8,1.1
		c-1.7,0-3.1-0.4-4.2-1.2c-1.2-0.8-1.7-1.9-1.7-3.2c0-0.4,0.1-0.8,0.2-1.2c-0.6-0.2-1.1-0.2-1.6-0.2c-0.8,0-1.5,0.2-2.1,0.6
		c-0.5,0.4-0.8,1-0.8,1.7c0,0.9,0.4,1.6,1.3,2.2c0.9,0.6,2.3,1.4,4.2,2.2c1.7,0.7,3,1.4,4.1,2c1.1,0.6,2,1.4,2.8,2.3s1.1,2,1.1,3.3
		c0,0.3-0.1,0.8-0.2,1.5c-0.5,2.2-2,4-4.4,5.3c-2.4,1.3-5.6,2-9.6,2c-4.5,0-8-0.6-10.6-1.8c-2.6-1.2-3.9-2.9-3.9-5
		c0-1.4,0.4-2.5,1.3-3.2s2-1.1,3.5-1.1c1.7,0,3.1,0.5,4.3,1.6c1.2,1,1.8,2.3,1.8,3.9c0,0.4,0,0.9-0.1,1.4c0.8,0.2,1.6,0.3,2.3,0.3
		c0.9,0,1.6-0.2,2.1-0.7c0.6-0.5,0.9-1.1,0.9-2c0-0.8-0.4-1.4-1.2-2s-1.9-1.2-3.5-2c-1.5-0.7-2.7-1.4-3.7-2c-1-0.6-1.8-1.4-2.5-2.3
		c-0.7-0.9-1-2-1-3.3c0-2.7,1.1-4.9,3.4-6.5c2.3-1.6,5.5-2.4,9.7-2.4C210.2,47.8,212.6,48,214.6,48.5z"/>
</g>
</svg>
