<?xml version="1.0" encoding="utf-8"?>
<!-- Generator: Adobe Illustrator 25.2.1, SVG Export Plug-In . SVG Version: 6.00 Build 0)  -->
<svg version="1.1" id="Layer_1" xmlns="http://www.w3.org/2000/svg" xmlns:xlink="http://www.w3.org/1999/xlink" x="0px" y="0px"
	 viewBox="0 0 214.3 244.8" style="enable-background:new 0 0 214.3 244.8;" xml:space="preserve">
<style type="text/css">
	.st0{fill:#FF6618;}
	.st1{fill:#F8F5F1;}
	.st2{enable-background:new    ;}
</style>
<g>
	<circle class="st0" cx="107.1" cy="148.8" r="94"/>
	<path class="st1" d="M107.1,244.8c-52.9,0-96-43.1-96-96s43.1-96,96-96c52.9,0,96,43.1,96,96S160,244.8,107.1,244.8z M107.1,56.8
		c-50.7,0-92,41.3-92,92c0,50.7,41.3,92,92,92s92-41.3,92-92C199.1,98.1,157.8,56.8,107.1,56.8z"/>
</g>
<g class="st2">
	<path class="st1" d="M37,12.1c1.6,0.5,3.2,1.2,4.8,2.1l1.2-1c0.8-0.6,1.5-1.1,2-1.3c0.5-0.2,1.1-0.4,1.8-0.4c0.8,0,1.4,0.2,1.9,0.5
		c0.5,0.4,0.7,0.9,0.7,1.5c0,0.3,0,0.6-0.1,0.9l-2.1,6.9c-0.2,0.8-0.5,1.4-0.9,1.7s-0.9,0.5-1.6,0.5c-0.7,0-1.4-0.2-1.9-0.7
		c-0.6-0.5-1.4-1.4-2.6-2.8c-1.2-1.3-2.2-2.3-3.2-2.8s-1.9-0.8-2.9-0.8c-0.7,0-1.4,0.2-1.9,0.7c-0.5,0.5-0.8,1.1-0.8,1.8
		c0,0.8,0.4,1.5,1.2,2.2c0.8,0.7,2.1,1.5,3.8,2.6c1.7,1,3.2,2,4.3,2.8c1.1,0.8,2.1,1.9,2.9,3.1s1.2,2.7,1.2,4.3c0,1-0.2,2.1-0.5,3.1
		c-0.8,2.7-2.4,4.7-4.7,6.1c-2.3,1.4-5,2.1-8.1,2.1c-2.3,0-4.2-0.3-5.8-0.8c-1.6-0.5-3.2-1.4-4.8-2.7l-1.8,1.5
		c-0.8,0.7-1.5,1.2-2.1,1.4c-0.5,0.3-1.1,0.4-1.8,0.4c-0.8,0-1.4-0.2-1.8-0.6c-0.5-0.4-0.7-0.9-0.7-1.5c0-0.3,0.1-0.7,0.2-1.1
		l2.5-7.5c0.3-0.9,0.6-1.5,1.1-1.9c0.5-0.4,1.1-0.6,1.8-0.6c0.8,0,1.5,0.3,2.1,0.8c0.6,0.5,1.4,1.5,2.4,2.9c1.1,1.5,2.1,2.6,3,3.2
		c0.9,0.6,2,0.9,3.3,0.9c0.9,0,1.6-0.1,2.1-0.4c0.5-0.3,0.8-0.7,1-1.4c0.1-0.2,0.1-0.4,0.1-0.8c0-0.8-0.4-1.5-1.2-2.2
		c-0.8-0.7-2-1.5-3.6-2.4c-1.7-1-3.1-2-4.2-2.8c-1.1-0.8-2-1.8-2.8-3.1c-0.8-1.2-1.2-2.7-1.2-4.4c0-1.2,0.2-2.3,0.6-3.5
		c0.7-2.3,2.1-4.2,4.3-5.6c2.2-1.4,4.7-2.1,7.5-2.1C33.7,11.4,35.5,11.7,37,12.1z"/>
	<path class="st1" d="M73.8,20.4c1.9,1.4,2.9,3.1,2.9,5.2c0,0.6-0.1,1.2-0.2,1.8c-0.5,2.2-1.9,3.8-4.2,4.7c-2.3,1-5,1.4-8.1,1.4
		c-1.6,0-3-0.1-4.4-0.3c0,1.7,0.4,3,1.4,3.7c1,0.7,2.3,1.1,4.1,1.1c0.8,0,1.6-0.1,2.3-0.3c0.7-0.2,1.7-0.5,2.8-0.8
		c0.9-0.3,1.6-0.5,1.9-0.5c0.4,0,0.6,0.2,0.6,0.7c0,1.2-0.4,2.4-1.3,3.7s-2.2,2.4-4,3.3c-1.8,0.9-3.9,1.4-6.4,1.4
		c-3.7,0-6.7-0.9-9.1-2.8c-2.4-1.9-3.6-4.6-3.6-8.2c0-1,0.1-2.2,0.4-3.5c0.8-4.1,2.7-7.2,5.5-9.3c2.8-2.1,6.3-3.1,10.3-3.1
		C68.9,18.4,71.9,19,73.8,20.4z M60.7,30.2c1.4,0,2.5-0.7,3.2-2c0.7-1.3,1.1-2.8,1.1-4.4c0-0.9-0.3-1.4-0.8-1.4
		c-0.4,0-0.8,0.3-1.3,0.9s-1,1.5-1.5,2.6c-0.5,1.2-0.9,2.6-1.2,4.2C60.3,30.2,60.5,30.2,60.7,30.2z"/>
	<path class="st1" d="M99.5,19.7c0.4,0.3,0.5,0.6,0.5,1.1c0,0.1,0,0.4-0.1,0.7c-0.4,1.5-1.4,2.2-3,2.2h-2.9L90.3,36
		c-0.2,0.5-0.3,1-0.3,1.6c0,0.6,0.2,1,0.5,1.3c0.3,0.2,0.8,0.4,1.4,0.4c0.5,0,1.2-0.1,2-0.2c0.4-0.1,0.8-0.2,1.1-0.2
		c0.2,0,0.4,0.1,0.5,0.2c0.1,0.2,0.2,0.3,0.2,0.6c0,0.7-0.5,1.5-1.5,2.4c-1,1-2.4,1.8-4.1,2.5c-1.7,0.7-3.7,1-5.8,1
		c-2.3,0-4.1-0.5-5.5-1.6c-1.4-1-2.1-2.5-2.1-4.3c0-0.8,0.1-1.6,0.4-2.4l3.2-9.9c0.2-0.6,0.3-1,0.3-1.4c0-0.7-0.2-1.2-0.5-1.7
		c-0.3-0.5-0.8-1-1.3-1.5c-0.5-0.5-0.9-0.9-1.1-1.2c-0.2-0.3-0.3-0.7-0.2-1.1c0.1-0.4,0.4-0.8,0.9-1c0.4-0.2,1.1-0.4,2.1-0.4h2.8
		l3.2-3.2c1.1-1.1,2.1-1.9,3-2.3c0.9-0.4,2.1-0.7,3.6-0.7c2.1,0,3.2,0.8,3.2,2.4c0,0.5-0.1,1-0.2,1.4l-0.7,2.3h2.7
		C98.7,19.3,99.2,19.4,99.5,19.7z"/>
	<path class="st1" d="M142.5,26.4c-1.5,1.1-3.3,1.8-5.6,2c1.6,0.1,2.8,0.6,3.6,1.4c0.8,0.8,1.2,1.9,1.2,3.2c0,0.5-0.1,1.1-0.2,1.9
		l-0.6,2.5c-0.1,0.3-0.1,0.6-0.1,0.7c0,0.4,0.1,0.8,0.3,1c0.2,0.2,0.5,0.3,0.9,0.3c0.7,0,1.2,0.1,1.5,0.3c0.3,0.2,0.4,0.6,0.3,1.1
		c-0.1,0.8-0.5,1.5-1.2,2.3s-1.6,1.3-2.8,1.8c-1.2,0.5-2.7,0.7-4.4,0.7c-2.2,0-4-0.5-5.3-1.5c-1.3-1-2-2.4-2-4.2
		c0-0.7,0.1-1.5,0.3-2.3l0.8-3.2c0.1-0.4,0.2-0.9,0.2-1.4c0-0.8-0.3-1.3-0.8-1.7c-0.5-0.3-1.3-0.5-2.5-0.5h-1.9l-2.3,8.3
		c-0.1,0.2-0.1,0.5-0.1,0.8c0,0.5,0.1,0.9,0.4,1.2c0.2,0.3,0.6,0.7,1,1.1c0.3,0.2,0.5,0.5,0.7,0.7c0.2,0.2,0.2,0.4,0.2,0.7
		c0,0.6-0.3,1-0.8,1.2c-0.5,0.2-1.3,0.4-2.4,0.4h-12.6c-0.9,0-1.5-0.2-2-0.5c-0.4-0.3-0.6-0.8-0.5-1.3c0.1-0.3,0.2-0.5,0.4-0.7
		c0.2-0.2,0.5-0.4,0.8-0.6c0.6-0.3,1-0.7,1.4-1.1c0.3-0.4,0.6-0.9,0.8-1.7l6.1-21.6c0.1-0.4,0.2-0.9,0.2-1.3c0-0.4-0.1-0.7-0.2-0.9
		c-0.1-0.3-0.3-0.5-0.5-0.9c-0.3-0.4-0.5-0.8-0.5-1.1c0-0.1,0-0.3,0.1-0.6c0.1-0.4,0.4-0.7,0.9-0.9c0.5-0.2,1.1-0.3,2.1-0.3h16.8
		c2.3,0,4.3,0.4,6,1.1s3,1.7,4,2.9c0.9,1.2,1.4,2.6,1.4,4.1c0,0.7-0.1,1.4-0.3,2.1C145,23.9,144,25.4,142.5,26.4z M132.9,19.7
		c0-1.8-1-2.7-2.9-2.7h-2.1l-2.2,8.9h2.1c1.3,0,2.3-0.3,3.1-1c0.8-0.6,1.3-1.8,1.8-3.5C132.8,20.6,132.9,20.1,132.9,19.7z"/>
	<path class="st1" d="M171.4,20.4c1.9,1.4,2.9,3.1,2.9,5.2c0,0.6-0.1,1.2-0.2,1.8c-0.5,2.2-1.9,3.8-4.2,4.7c-2.3,1-5,1.4-8.1,1.4
		c-1.6,0-3-0.1-4.4-0.3c0,1.7,0.4,3,1.4,3.7c1,0.7,2.3,1.1,4.1,1.1c0.8,0,1.6-0.1,2.3-0.3c0.7-0.2,1.7-0.5,2.8-0.8
		c0.9-0.3,1.6-0.5,1.9-0.5c0.4,0,0.6,0.2,0.6,0.7c0,1.2-0.4,2.4-1.3,3.7c-0.9,1.3-2.2,2.4-4,3.3s-3.9,1.4-6.4,1.4
		c-3.7,0-6.7-0.9-9.1-2.8c-2.4-1.9-3.6-4.6-3.6-8.2c0-1,0.1-2.2,0.4-3.5c0.8-4.1,2.7-7.2,5.5-9.3c2.8-2.1,6.3-3.1,10.3-3.1
		C166.5,18.4,169.5,19,171.4,20.4z M158.3,30.2c1.4,0,2.5-0.7,3.2-2c0.7-1.3,1.1-2.8,1.1-4.4c0-0.9-0.3-1.4-0.8-1.4
		c-0.4,0-0.8,0.3-1.3,0.9s-1,1.5-1.5,2.6c-0.5,1.2-0.9,2.6-1.2,4.2C157.9,30.2,158.1,30.2,158.3,30.2z"/>
	<path class="st1" d="M201.2,38.4c0,0.2,0.1,0.4,0.2,0.6c0.1,0.1,0.3,0.2,0.5,0.2c0.4,0,0.7-0.2,1-0.5c0.3-0.4,0.5-0.5,0.6-0.5
		c0.2,0,0.3,0.1,0.4,0.4c0.1,0.2,0.2,0.5,0.2,0.8c0,0.9-0.3,1.8-1,2.8c-0.7,0.9-1.7,1.7-2.9,2.3c-1.2,0.6-2.5,0.9-3.9,0.9
		c-1.7,0-3.1-0.3-4.4-1c-1.2-0.6-2.1-1.5-2.6-2.5c-0.9,1.2-1.9,2-3.1,2.6c-1.2,0.6-2.4,0.9-3.7,0.9c-1.5,0-3-0.4-4.3-1.2
		c-1.3-0.8-2.4-1.9-3.2-3.3c-0.8-1.4-1.2-3-1.2-4.8c0-3,0.6-5.9,1.7-8.6s2.8-4.9,4.8-6.5c2.1-1.7,4.4-2.5,7.1-2.5
		c1.4,0,2.7,0.2,3.7,0.5c1,0.3,1.9,0.8,2.8,1.5l1.7-5.6c0.1-0.3,0.2-0.6,0.2-0.8c0-0.4-0.1-0.7-0.3-0.9c-0.2-0.2-0.4-0.5-0.7-0.7
		c-0.3-0.3-0.6-0.5-0.7-0.7s-0.2-0.5-0.1-0.8c0.2-0.8,1.3-1.4,3.2-2c1.9-0.6,3.9-0.9,6-0.9c1.9,0,3.4,0.4,4.3,1.1
		c0.9,0.7,1.4,1.7,1.4,3c0,0.7-0.1,1.5-0.4,2.2l-7.2,23.5C201.2,38.2,201.2,38.3,201.2,38.4z M191.2,23.1c-1,0-1.9,0.7-2.9,2.2
		s-1.7,3.2-2.3,5.2c-0.6,2-0.8,3.9-0.8,5.5c0,1.8,0.6,2.8,1.8,2.8c0.4,0,0.8-0.2,1.1-0.5c0.3-0.4,0.6-0.9,0.9-1.7l3.9-12.7
		C192.4,23.3,191.8,23.1,191.2,23.1z"/>
</g>
<g>
	<path class="st0" d="M115.5,135.8L115.5,135.8c-4.4-5.6-3.4-13.6,2.2-18l51.5-40.3c5.6-4.4,13.6-3.4,18,2.2l0,0
		c4.4,5.6,3.4,13.6-2.2,18L133.5,138C127.9,142.4,119.9,141.4,115.5,135.8z"/>
	<path class="st1" d="M125.6,142.7c-0.6,0-1.2,0-1.8-0.1c-3.9-0.5-7.4-2.5-9.9-5.6l0,0c-2.5-3.1-3.5-7-3.1-10.9
		c0.5-3.9,2.5-7.4,5.6-9.9L168,75.9c6.4-5,15.7-3.9,20.8,2.5c5,6.4,3.9,15.7-2.5,20.8l-51.5,40.3
		C132.1,141.6,128.9,142.7,125.6,142.7z M177.1,76.8c-2.3,0-4.7,0.7-6.6,2.3l-51.5,40.3c-2.3,1.8-3.7,4.4-4.1,7.2s0.4,5.7,2.2,8l0,0
		c1.8,2.3,4.4,3.7,7.2,4.1c2.9,0.4,5.7-0.4,8-2.2l51.5-40.3c4.7-3.7,5.5-10.5,1.9-15.2C183.5,78.2,180.3,76.8,177.1,76.8z"/>
</g>
</svg>
