<?xml version="1.0" encoding="utf-8"?>
<!-- Generator: Adobe Illustrator 25.2.1, SVG Export Plug-In . SVG Version: 6.00 Build 0)  -->
<svg version="1.1" id="Layer_1" xmlns="http://www.w3.org/2000/svg" xmlns:xlink="http://www.w3.org/1999/xlink" x="0px" y="0px"
	 viewBox="0 0 134.07 136.3" style="enable-background:new 0 0 134.07 136.3;" xml:space="preserve">
<style type="text/css">
	.st0{fill:url(#SVGID_1_);stroke:#FFFFFF;stroke-miterlimit:10;}
	.st1{display:none;}
	.st2{display:inline;fill:none;stroke:#000000;stroke-width:14;stroke-miterlimit:10;stroke-dasharray:1.0083,10.0831;}
	.st3{fill:url(#SVGID_2_);stroke:#FFFFFF;stroke-miterlimit:10;}
	.st4{fill:#FFFFFF;stroke:#FFFFFF;stroke-width:2;stroke-linecap:round;stroke-miterlimit:10;}
	.st5{fill:none;}
	.st6{fill:#FFFFFF;}
	.st7{font-family:'Shrikhand-Regular';}
	.st8{font-size:30px;}
</style>
<linearGradient id="SVGID_1_" gradientUnits="userSpaceOnUse" x1="50.8386" y1="47.1733" x2="148.2111" y2="173.2941">
	<stop  offset="0" style="stop-color:#0363FF"/>
	<stop  offset="0.366" style="stop-color:#0242AA"/>
	<stop  offset="0.7207" style="stop-color:#012053"/>
</linearGradient>
<path class="st0" d="M107.17,124.03c-29.31,21.05-71.04,13.09-93.21-17.78C4.65,93.29,0.27,78.35,0.51,63.82
	c0.7,33.63,28.18,60.69,61.99,60.69c34.24,0,62.01-27.77,62.01-62.01c0-34.09-27.51-61.75-61.53-62
	c21.47-0.25,43.17,10.1,57.12,29.53C142.27,60.89,136.48,102.98,107.17,124.03z"/>
<g class="st1">
	
		<ellipse transform="matrix(0.8122 -0.5833 0.5833 0.8122 -24.8317 49.5487)" class="st2" cx="64.55" cy="63.35" rx="65.34" ry="68.81"/>
</g>
<radialGradient id="SVGID_2_" cx="62.5171" cy="62.5147" r="143.8223" gradientUnits="userSpaceOnUse">
	<stop  offset="0" style="stop-color:#0363FF"/>
	<stop  offset="0.5078" style="stop-color:#0242AA"/>
	<stop  offset="1" style="stop-color:#012053"/>
</radialGradient>
<path class="st3" d="M124.52,62.51c0,34.24-27.77,62.01-62.01,62.01c-33.81,0-61.29-27.06-61.99-60.69
	C0.82,43.76,9.9,24.47,26.9,12.26C37.76,4.46,50.34,0.65,62.99,0.51C97.01,0.76,124.52,28.42,124.52,62.51z"/>
<line class="st4" x1="24.27" y1="14.26" x2="37.88" y2="31.43"/>
<rect x="30.29" y="50.92" class="st5" width="93.44" height="37.2"/>
<text transform="matrix(1 0 0 1 30.2942 73.0932)" class="st6 st7 st8">Blue</text>
</svg>
