<?xml version="1.0" encoding="utf-8"?>
<!-- Generator: Adobe Illustrator 25.2.1, SVG Export Plug-In . SVG Version: 6.00 Build 0)  -->
<svg version="1.1" id="Layer_1" xmlns="http://www.w3.org/2000/svg" xmlns:xlink="http://www.w3.org/1999/xlink" x="0px" y="0px"
	 viewBox="0 0 158 42.8" style="enable-background:new 0 0 158 42.8;" xml:space="preserve">
<style type="text/css">
	.st0{enable-background:new    ;}
	.st1{fill:#F8F5F1;}
</style>
<g class="st0">
	<path class="st1" d="M19.1,7c1.3,0.4,2.5,0.9,3.8,1.7l0.9-0.8c0.6-0.5,1.2-0.8,1.6-1c0.4-0.2,0.9-0.3,1.4-0.3
		c0.6,0,1.1,0.1,1.5,0.4c0.4,0.3,0.6,0.7,0.6,1.2c0,0.2,0,0.4-0.1,0.7l-1.7,5.5c-0.2,0.6-0.4,1.1-0.7,1.3c-0.3,0.3-0.7,0.4-1.2,0.4
		c-0.6,0-1.1-0.2-1.5-0.5s-1.1-1.1-2-2.2c-0.9-1.1-1.8-1.8-2.5-2.2s-1.5-0.7-2.3-0.7c-0.6,0-1.1,0.2-1.5,0.6
		c-0.4,0.4-0.6,0.8-0.6,1.4c0,0.6,0.3,1.2,0.9,1.8c0.6,0.5,1.6,1.2,3,2c1.4,0.8,2.5,1.6,3.4,2.2c0.9,0.7,1.7,1.5,2.3,2.4
		c0.6,1,0.9,2.1,0.9,3.4c0,0.8-0.1,1.6-0.4,2.4c-0.6,2.1-1.9,3.7-3.7,4.8c-1.8,1.1-3.9,1.6-6.4,1.6c-1.8,0-3.3-0.2-4.6-0.6
		c-1.2-0.4-2.5-1.1-3.8-2.1L5,31.5c-0.7,0.6-1.2,0.9-1.6,1.1C3,32.9,2.5,33,2,33c-0.6,0-1.1-0.1-1.4-0.4C0.2,32.2,0,31.8,0,31.3
		c0-0.3,0.1-0.5,0.2-0.8l1.9-5.9c0.2-0.7,0.5-1.2,0.9-1.5c0.4-0.3,0.8-0.4,1.4-0.4c0.6,0,1.2,0.2,1.6,0.6c0.5,0.4,1.1,1.2,1.9,2.3
		c0.8,1.2,1.6,2.1,2.4,2.5c0.7,0.5,1.6,0.7,2.6,0.7c0.7,0,1.3-0.1,1.6-0.3c0.4-0.2,0.7-0.6,0.8-1.1c0.1-0.1,0.1-0.3,0.1-0.6
		c0-0.6-0.3-1.2-0.9-1.7c-0.6-0.5-1.5-1.2-2.8-1.9c-1.3-0.8-2.4-1.5-3.3-2.2s-1.6-1.5-2.2-2.4c-0.6-1-0.9-2.1-0.9-3.4
		c0-0.9,0.1-1.8,0.4-2.7c0.6-1.8,1.7-3.3,3.4-4.4C10.8,7,12.8,6.4,15,6.4C16.5,6.4,17.8,6.6,19.1,7z"/>
	<path class="st1" d="M48.1,13.5c1.5,1.1,2.3,2.4,2.3,4.1c0,0.5-0.1,1-0.2,1.4c-0.4,1.7-1.5,3-3.3,3.7c-1.8,0.8-3.9,1.1-6.4,1.1
		c-1.2,0-2.4-0.1-3.5-0.2c0,1.4,0.3,2.3,1.1,2.9c0.8,0.6,1.8,0.8,3.2,0.8c0.6,0,1.2-0.1,1.8-0.2c0.6-0.1,1.3-0.4,2.2-0.7
		c0.7-0.3,1.2-0.4,1.5-0.4c0.3,0,0.4,0.2,0.4,0.5c0,0.9-0.3,1.9-1,2.9c-0.7,1-1.8,1.9-3.2,2.6c-1.4,0.7-3.1,1.1-5.1,1.1
		c-2.9,0-5.3-0.7-7.2-2.2c-1.9-1.5-2.8-3.6-2.8-6.4c0-0.8,0.1-1.7,0.3-2.8c0.7-3.2,2.1-5.7,4.3-7.3c2.2-1.6,4.9-2.5,8.1-2.5
		C44.2,11.9,46.6,12.4,48.1,13.5z M37.8,21.2c1.1,0,1.9-0.5,2.5-1.5c0.6-1,0.9-2.2,0.8-3.4c0-0.7-0.2-1.1-0.6-1.1
		c-0.3,0-0.6,0.2-1,0.7s-0.8,1.2-1.2,2.1c-0.4,0.9-0.7,2-1,3.3C37.4,21.2,37.6,21.2,37.8,21.2z"/>
	<path class="st1" d="M68.4,12.9c0.3,0.2,0.4,0.5,0.4,0.9c0,0.1,0,0.3-0.1,0.6c-0.3,1.2-1.1,1.7-2.4,1.7h-2.3l-3,9.8
		c-0.1,0.4-0.2,0.8-0.2,1.2c0,0.5,0.1,0.8,0.4,1c0.3,0.2,0.6,0.3,1.1,0.3c0.4,0,0.9-0.1,1.6-0.2c0.3-0.1,0.6-0.1,0.8-0.1
		c0.2,0,0.3,0.1,0.4,0.2s0.1,0.3,0.1,0.5c0,0.5-0.4,1.2-1.2,1.9c-0.8,0.8-1.9,1.4-3.3,1.9c-1.4,0.5-2.9,0.8-4.5,0.8
		c-1.8,0-3.2-0.4-4.3-1.2c-1.1-0.8-1.6-1.9-1.6-3.4c0-0.7,0.1-1.3,0.3-1.9l2.5-7.8c0.1-0.4,0.2-0.8,0.2-1.1c0-0.5-0.1-1-0.4-1.3
		c-0.3-0.4-0.6-0.8-1-1.1c-0.4-0.4-0.7-0.7-0.8-0.9c-0.2-0.2-0.2-0.5-0.1-0.9c0.1-0.3,0.3-0.6,0.7-0.8c0.3-0.2,0.9-0.3,1.6-0.3h2.2
		l2.5-2.5c0.9-0.9,1.7-1.5,2.4-1.8c0.7-0.3,1.7-0.5,2.8-0.5c1.7,0,2.5,0.6,2.5,1.9c0,0.4-0.1,0.8-0.2,1.1l-0.6,1.8h2.1
		C67.7,12.6,68.1,12.7,68.4,12.9z"/>
	<path class="st1" d="M82.2,32c-1.8-0.8-3.2-2-4.2-3.6c-1-1.6-1.6-3.5-1.6-5.8c0-1.6,0.3-3.3,0.8-5.1c1.2-4,3-6.8,5.5-8.6
		c2.4-1.8,5.1-2.6,7.9-2.6c1.5,0,2.8,0.2,4,0.7c1.2,0.4,2.2,1.1,3.2,1.9L98.9,8c0.7-0.6,1.3-0.9,1.8-1.1c0.5-0.2,1-0.3,1.6-0.3
		c0.7,0,1.2,0.1,1.6,0.4c0.4,0.3,0.6,0.7,0.6,1.3c0,0.3-0.1,0.6-0.2,0.9l-2.2,6.2c-0.2,0.7-0.5,1.2-0.8,1.5
		c-0.3,0.3-0.8,0.4-1.5,0.4c-0.7,0-1.2-0.2-1.7-0.7c-0.4-0.5-0.9-1.3-1.5-2.5c-0.6-1.2-1.1-2.1-1.5-2.4c-0.4-0.4-1-0.6-1.7-0.6
		c-1.1,0-2.1,0.7-3.1,2c-1,1.3-1.9,3.3-2.7,6c-0.7,2.2-1,4.1-1,5.6c0,1.3,0.2,2.3,0.8,2.9c0.5,0.6,1.2,1,2,1c1.2,0,2.3-0.3,3.1-0.8
		c0.8-0.6,1.6-1.3,2.5-2.3c0.5-0.6,1-1,1.3-1.3c0.3-0.3,0.7-0.4,1-0.4c0.5,0,1,0.2,1.5,0.7c0.5,0.5,0.8,0.9,0.8,1.4
		c0,0.6-0.4,1.5-1.4,2.7c-1,1.2-2.3,2.3-4,3.3c-1.7,1-3.6,1.4-5.8,1.4C86,33.2,84,32.8,82.2,32z"/>
	<path class="st1" d="M115.5,12.9c0.7,0.6,1.1,1.4,1.1,2.4c0,0.6-0.1,1.2-0.3,1.7l-3.6,11.8c-0.1,0.3-0.1,0.6-0.1,0.8
		c0,0.3,0.1,0.6,0.2,0.8s0.3,0.4,0.6,0.6c0.2,0.2,0.3,0.3,0.4,0.5c0.1,0.1,0.1,0.3,0,0.5c-0.1,0.3-0.4,0.6-0.8,0.8
		c-0.4,0.2-1,0.2-1.8,0.2h-9c-0.7,0-1.2-0.1-1.5-0.3c-0.3-0.2-0.4-0.5-0.3-0.9c0.1-0.3,0.4-0.6,0.8-0.8c0.4-0.2,0.7-0.5,1-0.8
		c0.3-0.3,0.5-0.8,0.7-1.4l3.4-11.4c0.1-0.2,0.1-0.4,0.1-0.6c0-0.3-0.1-0.5-0.2-0.7c-0.1-0.2-0.3-0.3-0.6-0.5
		c-0.3-0.2-0.4-0.4-0.6-0.6s-0.1-0.4,0-0.6c0.2-0.6,1-1.1,2.5-1.6s3.1-0.7,4.7-0.7C113.7,12.1,114.8,12.4,115.5,12.9z M117.4,4.3
		c0.7,0.7,1,1.5,1,2.5c0,0.7-0.2,1.4-0.5,2c-0.4,0.7-0.9,1.2-1.5,1.6c-0.6,0.4-1.4,0.6-2.2,0.6c-1,0-1.8-0.3-2.5-1
		c-0.7-0.7-1-1.5-1-2.5c0-0.7,0.2-1.3,0.5-2c0.3-0.6,0.8-1.2,1.5-1.6c0.6-0.4,1.4-0.6,2.2-0.6C115.9,3.3,116.7,3.7,117.4,4.3z"/>
	<path class="st1" d="M135.1,12.9c0.3,0.2,0.4,0.5,0.4,0.9c0,0.1,0,0.3-0.1,0.6c-0.3,1.2-1.1,1.7-2.4,1.7h-2.3l-3,9.8
		c-0.1,0.4-0.2,0.8-0.2,1.2c0,0.5,0.1,0.8,0.4,1c0.3,0.2,0.6,0.3,1.1,0.3c0.4,0,0.9-0.1,1.6-0.2c0.3-0.1,0.6-0.1,0.8-0.1
		c0.2,0,0.3,0.1,0.4,0.2c0.1,0.1,0.1,0.3,0.1,0.5c0,0.5-0.4,1.2-1.2,1.9c-0.8,0.8-1.9,1.4-3.3,1.9c-1.4,0.5-2.9,0.8-4.5,0.8
		c-1.8,0-3.2-0.4-4.3-1.2c-1.1-0.8-1.6-1.9-1.6-3.4c0-0.7,0.1-1.3,0.3-1.9L120,19c0.1-0.4,0.2-0.8,0.2-1.1c0-0.5-0.1-1-0.4-1.3
		c-0.2-0.4-0.6-0.8-1-1.1c-0.4-0.4-0.7-0.7-0.8-0.9c-0.2-0.2-0.2-0.5-0.1-0.9c0.1-0.3,0.3-0.6,0.7-0.8c0.3-0.2,0.9-0.3,1.6-0.3h2.2
		l2.5-2.5c0.9-0.9,1.7-1.5,2.4-1.8c0.7-0.3,1.7-0.5,2.8-0.5c1.7,0,2.5,0.6,2.5,1.9c0,0.4-0.1,0.8-0.2,1.1l-0.6,1.8h2.1
		C134.4,12.6,134.8,12.7,135.1,12.9z"/>
	<path class="st1" d="M157,13.5c0.7,0.9,1,2.2,1,3.8c0,1.4-0.3,2.9-0.8,4.5c-1,3.2-2.5,6.3-4.7,9.2s-4.6,5.2-7.4,6.9
		c-2.8,1.7-5.5,2.6-8.3,2.6c-1.4,0-2.5-0.2-3.5-0.7s-1.7-1.1-2.3-1.9c-0.5-0.8-0.8-1.6-0.8-2.5c0-0.4,0.1-0.8,0.2-1.3
		c0.2-0.7,0.6-1.3,1.2-1.7c0.6-0.4,1.2-0.6,2-0.6c1.2,0,2.2,0.4,3,1.2c0.8,0.8,1.3,2,1.5,3.4c1.7-0.1,3.2-0.8,4.7-2.2
		c-1.3-0.2-2.3-0.7-3-1.4c-0.6-0.7-1.1-1.7-1.3-3.1l-1.6-9.7c-0.1-0.5-0.2-0.8-0.3-1c-0.1-0.2-0.3-0.3-0.6-0.3
		c-0.2,0-0.4,0.1-0.7,0.3c-0.3,0.2-0.4,0.3-0.5,0.3c-0.2,0-0.3-0.2-0.3-0.7c0-0.4,0.1-0.8,0.2-1.2c0.5-1.5,1.4-2.8,2.6-3.8
		c1.3-1,2.8-1.6,4.5-1.6c1.7,0,2.9,0.5,3.7,1.5c0.8,1,1.3,2.5,1.6,4.6l1.2,8.7c0.1,0.7,0.3,1,0.7,1c0.5,0,1-0.4,1.7-1.3
		c0.6-0.9,1.2-2.1,1.9-3.7c-0.8-0.7-1.4-1.5-1.8-2.4s-0.6-1.9-0.6-3c0-0.8,0.1-1.6,0.3-2.2c0.3-1.1,0.8-1.8,1.5-2.4
		c0.7-0.5,1.4-0.8,2.3-0.8C155.3,12.1,156.3,12.5,157,13.5z"/>
</g>
</svg>
