<?xml version="1.0" encoding="utf-8"?>
<!-- Generator: Adobe Illustrator 25.2.1, SVG Export Plug-In . SVG Version: 6.00 Build 0)  -->
<svg version="1.1" id="Layer_1" xmlns="http://www.w3.org/2000/svg" xmlns:xlink="http://www.w3.org/1999/xlink" x="0px" y="0px"
	 viewBox="0 0 298.3 119.6" style="enable-background:new 0 0 298.3 119.6;" xml:space="preserve">
<style type="text/css">
	.st0{fill:#FA7F72;}
	.st1{fill:#F8F5F1;}
	.st2{enable-background:new    ;}
</style>
<g>
	<path class="st0" d="M238.5,117.6H59.8C27.9,117.6,2,91.7,2,59.8l0,0C2,27.9,27.9,2,59.8,2h178.7c31.9,0,57.8,25.9,57.8,57.8l0,0
		C296.3,91.7,270.4,117.6,238.5,117.6z"/>
	<path class="st1" d="M238.5,119.6H59.8C26.8,119.6,0,92.8,0,59.8S26.8,0,59.8,0h178.7c33,0,59.8,26.8,59.8,59.8
		S271.5,119.6,238.5,119.6z M59.8,4C29,4,4,29,4,59.8c0,30.8,25,55.8,55.8,55.8h178.7c30.8,0,55.8-25,55.8-55.8
		c0-30.8-25-55.8-55.8-55.8H59.8z"/>
</g>
<g class="st2">
	<path class="st1" d="M106.1,40.6c0,0.5-0.1,1-0.3,1.8l-1.2,4c-0.4,1.2-0.8,2.1-1.3,2.6c-0.5,0.5-1.3,0.8-2.3,0.8
		c-0.8,0-1.5-0.2-1.9-0.6c-0.5-0.4-0.9-1.1-1.3-2L96.9,45c-0.3-0.6-0.6-1.1-0.9-1.3c-0.3-0.2-0.8-0.3-1.4-0.3h-1.1l-6.4,22.4
		c-0.1,0.4-0.1,0.8-0.1,1.2c0,0.4,0.1,0.7,0.2,1c0.1,0.3,0.3,0.5,0.5,0.8c0.3,0.5,0.5,0.9,0.5,1.2c0,0.1,0,0.2-0.1,0.5
		c-0.2,0.4-0.5,0.8-1,1c-0.5,0.2-1.2,0.3-2.1,0.3H73.3c-0.7,0-1.2-0.1-1.6-0.4c-0.4-0.2-0.6-0.6-0.6-1c0-0.2,0-0.4,0.1-0.6
		c0.1-0.3,0.3-0.5,0.5-0.7c0.2-0.2,0.5-0.3,0.8-0.6c0.5-0.3,0.9-0.6,1.2-1c0.3-0.4,0.6-0.9,0.8-1.7l6.3-22.4h-1.1
		c-0.7,0-1.3,0.1-1.8,0.3c-0.5,0.2-1,0.7-1.5,1.3L74.8,47c-0.8,0.9-1.5,1.6-2.2,2c-0.7,0.5-1.5,0.7-2.3,0.7c-0.8,0-1.4-0.2-1.8-0.6
		c-0.4-0.4-0.6-1-0.6-1.7c0-0.3,0-0.7,0.1-1.1l1.3-4.5c0.3-0.9,0.6-1.6,0.9-2.1c0.3-0.5,0.8-0.8,1.4-1c0.6-0.2,1.5-0.3,2.6-0.3h29.1
		C105.2,38.3,106.1,39.1,106.1,40.6z"/>
	<path class="st1" d="M130.6,47.9c2.1,1.8,3.2,4.2,3.2,7.2c0,1-0.1,2.1-0.4,3.3c-0.6,2.7-1.8,5.1-3.6,7.2c-1.7,2-3.9,3.6-6.4,4.8
		c-2.5,1.1-5.2,1.7-8.2,1.7c-4.6,0-8.1-0.9-10.3-2.8c-2.2-1.8-3.3-4.3-3.3-7.4c0-1,0.1-2.2,0.4-3.5c0.6-2.6,1.8-4.9,3.6-6.9
		c1.8-2,4-3.6,6.6-4.7c2.6-1.1,5.3-1.7,8.3-1.7C125.1,45.2,128.5,46.1,130.6,47.9z M118.2,51.5c-0.8,1.2-1.7,3.6-2.8,7.1
		c-1.1,3.5-1.6,5.9-1.6,7.3c0,0.7,0.1,1.2,0.4,1.5c0.2,0.2,0.5,0.4,0.9,0.4c0.7,0.1,1.4-0.5,2.2-1.8c0.8-1.3,1.7-3.7,2.8-7.4
		c1-3.2,1.6-5.6,1.6-7.1c0-0.7-0.1-1.2-0.3-1.4c-0.2-0.3-0.5-0.4-0.9-0.4C119.8,49.6,119,50.3,118.2,51.5z"/>
	<path class="st1" d="M167.3,46.8c1.1,1,1.7,2.3,1.7,3.8c0,1.6-0.5,2.8-1.5,3.8c-1,0.9-2.2,1.3-3.8,1.3c-1.4,0-2.5-0.4-3.2-1.1
		c-0.8-0.7-1.1-1.5-1.1-2.4c-0.3-0.1-0.6,0.1-0.9,0.4s-0.5,1-0.8,2c-0.2,0.6-0.5,1.2-1,1.8c2.3,0.2,4,0.7,5.1,1.5
		c1.1,0.9,1.6,2,1.6,3.4c0,0.7-0.1,1.3-0.3,2l-0.4,1.5c-0.1,0.2-0.1,0.4-0.1,0.7c0,0.5,0.2,0.7,0.6,0.7c0.4,0,0.7-0.2,1-0.5
		c0.3-0.3,0.5-0.5,0.6-0.5c0.2,0,0.3,0.1,0.4,0.3c0.1,0.2,0.2,0.5,0.2,0.8c0,1-0.3,1.9-0.9,2.8c-0.6,0.9-1.5,1.7-2.8,2.2
		s-2.8,0.9-4.5,0.9c-2.1,0-3.9-0.5-5.3-1.6c-1.4-1.1-2.1-2.5-2.1-4.2c0-0.6,0.1-1.4,0.4-2.2l1-2.5c0.2-0.6,0.2-1,0.2-1.3
		c0-0.4-0.1-0.8-0.4-1c-0.3-0.2-0.7-0.3-1.3-0.3h-1l-2.2,7.4c-0.1,0.4-0.1,0.8-0.1,1c0,0.4,0.1,0.8,0.2,1c0.2,0.2,0.4,0.5,0.7,0.7
		c0.2,0.2,0.4,0.4,0.5,0.6c0.1,0.2,0.1,0.3,0,0.6c-0.2,0.4-0.5,0.8-1,1s-1.3,0.3-2.3,0.3h-11.4c-0.9,0-1.5-0.1-1.9-0.4
		s-0.5-0.7-0.4-1.1c0.1-0.4,0.5-0.8,1-1c0.5-0.3,0.9-0.6,1.2-1c0.3-0.4,0.6-1,0.9-1.8l7.6-25c0.1-0.3,0.1-0.5,0.1-0.8
		c0-0.4-0.1-0.7-0.3-0.9c-0.2-0.2-0.4-0.5-0.7-0.7c-0.3-0.3-0.6-0.5-0.7-0.7c-0.1-0.2-0.2-0.5-0.1-0.8c0.2-0.8,1.2-1.4,3.1-2
		s3.9-0.9,6-0.9c1.9,0,3.3,0.4,4.2,1.1s1.3,1.7,1.3,3c0,0.8-0.1,1.5-0.3,2.2l-4.3,14.2h1.6c0.7,0,1.2-0.2,1.6-0.6
		c0.4-0.4,0.7-1,1-1.8c0.8-2.5,1.9-4.4,3.2-5.7c1.3-1.3,3.1-2,5.3-2C164.6,45.2,166.1,45.7,167.3,46.8z"/>
	<path class="st1" d="M198.5,47c0.9,1.2,1.3,2.8,1.3,4.8c0,1.8-0.3,3.7-1,5.7c-1.2,4.1-3.2,8-5.9,11.6c-2.7,3.6-5.8,6.5-9.4,8.8
		s-7,3.3-10.5,3.3c-1.7,0-3.2-0.3-4.5-0.9c-1.2-0.6-2.2-1.4-2.8-2.4c-0.7-1-1-2.1-1-3.2c0-0.5,0.1-1,0.2-1.7
		c0.3-0.9,0.8-1.6,1.5-2.1c0.7-0.5,1.5-0.8,2.5-0.8c1.5,0,2.8,0.5,3.8,1.6c1,1,1.6,2.5,1.9,4.3c2.1-0.1,4.1-1,5.9-2.8
		c-1.7-0.3-3-0.9-3.8-1.7c-0.8-0.8-1.4-2.2-1.7-4l-2-12.3c-0.1-0.6-0.2-1.1-0.4-1.3c-0.2-0.2-0.4-0.4-0.7-0.4
		c-0.2,0-0.5,0.1-0.8,0.3c-0.3,0.2-0.5,0.4-0.7,0.4c-0.3,0-0.4-0.3-0.4-0.9c0-0.5,0.1-1,0.2-1.5c0.6-1.9,1.7-3.5,3.3-4.8
		c1.6-1.3,3.5-2,5.7-2c2.1,0,3.7,0.6,4.7,1.9s1.7,3.2,2,5.8l1.5,11c0.1,0.8,0.4,1.2,0.9,1.2c0.6,0,1.3-0.5,2.1-1.6
		c0.8-1.1,1.6-2.6,2.3-4.6c-1-0.9-1.8-1.9-2.3-3.1c-0.5-1.2-0.8-2.4-0.8-3.8c0-1,0.1-2,0.4-2.8c0.4-1.3,1-2.3,1.9-3
		c0.9-0.7,1.8-1,2.9-1C196.5,45.2,197.6,45.8,198.5,47z"/>
	<path class="st1" d="M228.9,47.9c2.2,1.8,3.2,4.2,3.2,7.2c0,1-0.1,2.1-0.4,3.3c-0.6,2.7-1.8,5.1-3.5,7.2c-1.7,2-3.9,3.6-6.4,4.8
		c-2.5,1.1-5.2,1.7-8.2,1.7c-4.6,0-8.1-0.9-10.3-2.8c-2.2-1.8-3.3-4.3-3.3-7.4c0-1,0.1-2.2,0.4-3.5c0.6-2.6,1.8-4.9,3.6-6.9
		c1.8-2,4-3.6,6.6-4.7c2.6-1.1,5.3-1.7,8.3-1.7C223.4,45.2,226.7,46.1,228.9,47.9z M216.5,51.5c-0.8,1.2-1.7,3.6-2.8,7.1
		c-1.1,3.5-1.6,5.9-1.6,7.3c0,0.7,0.1,1.2,0.4,1.5c0.2,0.2,0.5,0.4,0.9,0.4c0.7,0.1,1.4-0.5,2.2-1.8c0.8-1.3,1.7-3.7,2.8-7.4
		c1-3.2,1.5-5.6,1.5-7.1c0-0.7-0.1-1.2-0.3-1.4s-0.5-0.4-0.9-0.4C218,49.6,217.3,50.3,216.5,51.5z"/>
</g>
</svg>
