<?xml version="1.0" encoding="utf-8"?>
<!-- Generator: Adobe Illustrator 25.2.1, SVG Export Plug-In . SVG Version: 6.00 Build 0)  -->
<svg version="1.1" id="Layer_1" xmlns="http://www.w3.org/2000/svg" xmlns:xlink="http://www.w3.org/1999/xlink" x="0px" y="0px"
	 viewBox="0 0 251.7 47.2" style="enable-background:new 0 0 251.7 47.2;" xml:space="preserve">
<style type="text/css">
	.st0{fill:none;}
	.st1{enable-background:new    ;}
	.st2{fill:#F8F5F1;}
	.st3{fill:#FF6618;}
	.st4{fill:#006D91;}
	.st5{fill:#FFAE6A;}
	.st6{fill:#008B99;}
	.st7{fill:#F8D8AB;}
</style>
<g>
	<g>
		<rect y="1.5" class="st0" width="247.2" height="49.6"/>
	</g>
	<g class="st1">
		<path class="st2" d="M64.4,13.5c-0.6,0.9-1.3,1.6-2.2,2.1c-0.9,0.5-1.7,0.7-2.6,0.7c-0.8,0-1.6-0.2-2.3-0.6
			c-0.7-0.4-1.2-0.9-1.4-1.4L43.3,35.4c-1,1.6-1.8,2.8-2.6,3.5c-0.8,0.7-1.7,1-2.7,1c-2.3,0-3.6-1.5-4-4.5l-1.7-15.3L21.9,35.4
			c-1.2,1.8-2.2,3-2.9,3.6c-0.7,0.6-1.6,0.9-2.6,0.9c-2.1,0-3.4-1.7-3.8-5L9.2,11.4c-0.1-0.7-0.3-1.2-0.6-1.7
			C8.3,9.3,7.9,8.9,7.5,8.5C7.2,8.2,7,8,6.8,7.8C6.7,7.6,6.6,7.4,6.6,7.1C6.4,5.9,7.2,5.2,8.9,5.2h12.9c0.8,0,1.4,0.2,1.8,0.5
			C24,6,24.2,6.5,24.2,7c0,0.3-0.1,0.5-0.2,0.8c-0.2,0.3-0.3,0.5-0.5,0.7c-0.4,0.4-0.7,0.8-0.8,1.2c-0.2,0.4-0.2,0.9-0.2,1.5
			l1.4,12.5l7.8-11.2l-0.2-1.2c-0.1-0.7-0.2-1.2-0.5-1.6c-0.3-0.4-0.7-0.8-1.1-1.2c-0.3-0.3-0.6-0.6-0.7-0.8
			c-0.1-0.2-0.2-0.4-0.2-0.7c-0.2-1.3,0.6-1.9,2.3-1.9h13c0.8,0,1.4,0.2,1.8,0.5s0.6,0.8,0.6,1.3c0,0.5-0.2,1-0.7,1.5
			C45.5,9,45.2,9.4,45,9.7c-0.2,0.4-0.2,0.9-0.2,1.5l0.6,11.3l7-12.3c1.1-2,2.3-3.4,3.3-4.1C56.9,5.4,58.3,5,60,5
			c1.6,0,2.8,0.5,3.8,1.4c1,0.9,1.5,2.2,1.5,3.8C65.3,11.5,65,12.5,64.4,13.5z"/>
		<path class="st2" d="M86.7,14.2c2,1.4,3,3.2,3,5.4c0,0.7-0.1,1.3-0.2,1.8c-0.5,2.3-2,3.9-4.3,4.9c-2.4,1-5.2,1.5-8.4,1.5
			c-1.6,0-3.2-0.1-4.6-0.3c0,1.8,0.4,3.1,1.5,3.8c1,0.7,2.4,1.1,4.2,1.1c0.8,0,1.6-0.1,2.4-0.3c0.8-0.2,1.7-0.5,2.9-0.9
			c1-0.3,1.6-0.5,2-0.5c0.4,0,0.6,0.2,0.6,0.7c0,1.2-0.4,2.5-1.4,3.8c-0.9,1.3-2.3,2.5-4.2,3.4c-1.8,0.9-4.1,1.4-6.7,1.4
			c-3.8,0-7-1-9.5-2.9c-2.5-1.9-3.7-4.8-3.7-8.5c0-1,0.1-2.3,0.4-3.6c0.9-4.3,2.8-7.5,5.7-9.6c2.9-2.2,6.5-3.2,10.7-3.2
			C81.5,12.1,84.7,12.8,86.7,14.2z M73.1,24.4c1.5,0,2.6-0.7,3.3-2c0.8-1.4,1.1-2.9,1.1-4.5c0-1-0.3-1.5-0.8-1.5
			c-0.4,0-0.8,0.3-1.4,0.9s-1,1.5-1.5,2.7c-0.5,1.2-0.9,2.7-1.3,4.3C72.6,24.4,72.8,24.4,73.1,24.4z"/>
		<path class="st2" d="M116.7,14.6c2.4,1.5,3.6,3.7,3.6,6.7c0,1.1-0.2,2.4-0.6,3.9l-2.1,7.2c0,0.1-0.1,0.3-0.1,0.5
			c0,0.6,0.2,0.8,0.7,0.8c0.4,0,0.8-0.2,1.1-0.5c0.3-0.4,0.5-0.5,0.6-0.5c0.2,0,0.3,0.1,0.4,0.4c0.1,0.2,0.2,0.5,0.2,0.8
			c0,0.9-0.3,1.9-1.1,2.9c-0.7,1-1.7,1.8-3,2.4s-2.6,0.9-4.1,0.9c-1.8,0-3.3-0.3-4.6-1c-1.3-0.7-2.2-1.6-2.7-2.9
			c-1,1.2-2.3,2.2-3.7,2.9c-1.4,0.7-2.9,1-4.6,1c-1.8,0-3.4-0.4-4.6-1.1c-1.2-0.7-2.2-1.6-2.8-2.8c-0.6-1.1-0.9-2.3-0.9-3.6
			c0-0.6,0.1-1.1,0.2-1.6c0.6-2.4,1.8-4.2,3.6-5.4c1.9-1.2,4.1-1.8,6.6-1.8c2.9,0,5.7,0.5,8.5,1.4l1.3-3.4c0.5-1.5,0.7-2.6,0.7-3.4
			c0-0.8-0.3-1.5-0.8-1.9c-0.5-0.4-1.3-0.6-2.4-0.6c0.2,0.6,0.3,1.1,0.3,1.7c0,1.3-0.5,2.4-1.5,3.3c-1,0.9-2.4,1.4-4.2,1.4
			c-1.7,0-3-0.4-4-1.1c-1-0.7-1.4-1.7-1.4-2.8c0-1.7,1-3.2,2.9-4.3c1.9-1.1,4.9-1.7,8.9-1.7C111.2,12.3,114.3,13.1,116.7,14.6z
			 M101.9,29.2c-0.6,0.7-0.9,1.6-0.9,2.4c0,0.6,0.1,1,0.4,1.4c0.3,0.3,0.6,0.5,1.1,0.5c0.5,0,0.9-0.2,1.5-0.5
			c0.5-0.4,0.9-0.9,1.2-1.6l1.1-3.1c-0.6-0.1-1.2-0.2-2-0.2C103.3,28.1,102.5,28.5,101.9,29.2z"/>
		<path class="st2" d="M147.4,13.4c0.4,0.3,0.5,0.7,0.5,1.1c0,0.1,0,0.4-0.1,0.7c-0.5,1.5-1.5,2.3-3.1,2.3h-3l-3.9,12.8
			c-0.2,0.5-0.3,1.1-0.3,1.6c0,0.6,0.2,1.1,0.5,1.3c0.3,0.2,0.8,0.4,1.5,0.4c0.6,0,1.2-0.1,2.1-0.2c0.4-0.1,0.8-0.2,1.1-0.2
			c0.2,0,0.4,0.1,0.5,0.2c0.1,0.2,0.2,0.4,0.2,0.6c0,0.7-0.5,1.5-1.5,2.5c-1.1,1-2.5,1.8-4.3,2.5c-1.8,0.7-3.8,1.1-6,1.1
			c-2.4,0-4.2-0.5-5.7-1.6c-1.4-1.1-2.1-2.5-2.1-4.4c0-0.9,0.1-1.7,0.4-2.5l3.3-10.3c0.2-0.6,0.3-1.1,0.3-1.4c0-0.7-0.2-1.3-0.5-1.8
			c-0.3-0.5-0.8-1-1.4-1.5c-0.5-0.5-0.9-0.9-1.1-1.2c-0.2-0.3-0.3-0.7-0.2-1.2c0.1-0.5,0.4-0.8,0.9-1c0.5-0.2,1.2-0.4,2.1-0.4h2.9
			l3.3-3.3c1.1-1.1,2.2-1.9,3.1-2.4c1-0.5,2.2-0.7,3.7-0.7c2.2,0,3.3,0.8,3.3,2.5c0,0.5-0.1,1-0.2,1.5l-0.7,2.4h2.8
			C146.5,13,147,13.2,147.4,13.4z"/>
		<path class="st2" d="M176.9,32.7c-0.1,0.1-0.1,0.3-0.1,0.6c0,0.2,0.1,0.4,0.2,0.6c0.1,0.1,0.3,0.2,0.5,0.2c0.4,0,0.8-0.2,1.1-0.5
			c0.3-0.4,0.5-0.5,0.6-0.5c0.2,0,0.3,0.1,0.4,0.3c0.1,0.2,0.2,0.5,0.2,0.8c0,1-0.3,2-1,2.9c-0.7,1-1.7,1.7-3,2.3
			c-1.3,0.6-2.9,0.9-4.8,0.9c-2.3,0-4.1-0.5-5.5-1.6c-1.4-1.1-2-2.5-2.1-4.2c0-1.3,0.3-2.7,0.9-4.3l2.9-7.5c0.2-0.5,0.3-0.8,0.3-1.1
			c0-0.5-0.1-0.8-0.4-1.1c-0.3-0.3-0.7-0.4-1.1-0.4c-0.7,0-1.3,0.3-2,0.9c-0.7,0.6-1.2,1.6-1.6,2.9v-0.1l-3.3,10.6
			c-0.1,0.4-0.2,0.8-0.2,1.1c0,0.5,0.1,0.8,0.3,1.1c0.2,0.3,0.4,0.5,0.7,0.8c0.2,0.2,0.4,0.4,0.5,0.6c0.1,0.2,0.1,0.4,0.1,0.6
			c-0.2,0.5-0.5,0.8-1,1s-1.3,0.3-2.4,0.3H145c-0.9,0-1.6-0.1-2-0.4c-0.4-0.3-0.6-0.7-0.4-1.2c0.1-0.4,0.5-0.8,1.1-1.1
			c0.5-0.3,1-0.6,1.3-1c0.3-0.4,0.6-1,0.9-1.8l7.9-25.9c0.1-0.3,0.2-0.6,0.2-0.8c0-0.4-0.1-0.7-0.3-0.9c-0.2-0.2-0.4-0.5-0.8-0.7
			c-0.3-0.3-0.6-0.5-0.8-0.7s-0.2-0.5-0.1-0.8c0.2-0.8,1.3-1.5,3.3-2.1c2-0.6,4-0.9,6.2-0.9c2,0,3.5,0.4,4.4,1.1
			c1,0.8,1.4,1.8,1.4,3.1c0,0.8-0.1,1.5-0.4,2.2l-2.8,9.2c1.4-1.8,2.8-3,4.3-3.7s3.1-1,4.9-1c2.1,0,3.8,0.6,5.1,1.9
			c1.3,1.3,1.9,2.9,1.9,5c0,1.1-0.2,2.1-0.5,3.2L176.9,32.7z"/>
		<path class="st2" d="M209.1,14.2c2,1.4,3,3.2,3,5.4c0,0.7-0.1,1.3-0.2,1.8c-0.5,2.3-2,3.9-4.3,4.9c-2.4,1-5.2,1.5-8.4,1.5
			c-1.6,0-3.2-0.1-4.6-0.3c0,1.8,0.5,3.1,1.5,3.8c1,0.7,2.4,1.1,4.2,1.1c0.8,0,1.6-0.1,2.4-0.3c0.8-0.2,1.7-0.5,2.9-0.9
			c1-0.3,1.6-0.5,2-0.5c0.4,0,0.6,0.2,0.6,0.7c0,1.2-0.4,2.5-1.4,3.8c-0.9,1.3-2.3,2.5-4.2,3.4c-1.8,0.9-4.1,1.4-6.7,1.4
			c-3.8,0-7-1-9.5-2.9c-2.5-1.9-3.7-4.8-3.7-8.5c0-1,0.1-2.3,0.4-3.6c0.9-4.3,2.8-7.5,5.7-9.6c2.9-2.2,6.5-3.2,10.7-3.2
			C203.9,12.1,207.1,12.8,209.1,14.2z M195.5,24.4c1.5,0,2.6-0.7,3.3-2c0.8-1.4,1.1-2.9,1.1-4.5c0-1-0.3-1.5-0.8-1.5
			c-0.4,0-0.8,0.3-1.4,0.9c-0.5,0.6-1,1.5-1.5,2.7c-0.5,1.2-0.9,2.7-1.3,4.3C195,24.4,195.2,24.4,195.5,24.4z"/>
		<path class="st2" d="M241.2,14.1c1.2,1.2,1.7,2.6,1.7,4.4c0,0.7-0.1,1.3-0.2,1.8c-0.3,1.4-1,2.5-2,3.3c-1,0.8-2.1,1.1-3.5,1.1
			c-1.3,0-2.3-0.3-3-0.9c-0.7-0.6-1.3-1.5-1.8-2.5c-0.3-0.6-0.5-1-0.8-1.3c-0.2-0.3-0.5-0.4-0.8-0.4c-0.3,0-0.7,0.1-0.9,0.4
			c-0.3,0.3-0.5,0.8-0.7,1.5l-4,13c-0.1,0.2-0.1,0.4-0.1,0.8c0,0.5,0.1,0.8,0.4,1.1c0.3,0.3,0.6,0.6,1.1,0.9
			c0.4,0.3,0.7,0.5,0.8,0.7s0.2,0.4,0.2,0.7c-0.1,0.5-0.3,0.8-0.8,1c-0.4,0.2-1.2,0.3-2.2,0.3h-13.3c-0.9,0-1.6-0.1-1.9-0.4
			c-0.4-0.3-0.5-0.7-0.4-1.2c0.1-0.4,0.5-0.8,1.1-1.1c0.5-0.3,1-0.6,1.3-1c0.3-0.4,0.6-1,0.9-1.8l4.6-15c0.1-0.2,0.1-0.4,0.1-0.7
			c0-0.4-0.1-0.7-0.2-0.9c-0.2-0.2-0.4-0.5-0.8-0.8c-0.3-0.3-0.6-0.5-0.7-0.7s-0.2-0.5-0.1-0.8c0.2-0.8,1.3-1.5,3.3-2.1
			c2-0.6,4-0.9,6.2-0.9c1.4,0,2.6,0.3,3.5,1c0.9,0.6,1.5,1.6,1.8,2.7c1.7-2.5,3.8-3.7,6.6-3.7C238.5,12.3,240,12.9,241.2,14.1z"/>
	</g>
	<g>
		<g>
			<rect x="4.5" y="6" class="st0" width="247.2" height="49.6"/>
		</g>
		<g class="st1">
			<path class="st3" d="M68.9,18c-0.6,0.9-1.3,1.6-2.2,2.1c-0.9,0.5-1.7,0.7-2.6,0.7c-0.8,0-1.6-0.2-2.3-0.6
				c-0.7-0.4-1.2-0.9-1.4-1.4L47.8,39.9c-1,1.6-1.8,2.8-2.6,3.5c-0.8,0.7-1.7,1-2.7,1c-2.3,0-3.6-1.5-4-4.5l-1.7-15.3L26.4,39.9
				c-1.2,1.8-2.2,3-2.9,3.6c-0.7,0.6-1.6,0.9-2.6,0.9c-2.1,0-3.4-1.7-3.8-5l-3.3-23.5c-0.1-0.7-0.3-1.2-0.6-1.7
				c-0.3-0.4-0.7-0.8-1.1-1.2c-0.3-0.3-0.5-0.5-0.7-0.7c-0.1-0.2-0.2-0.4-0.2-0.7c-0.2-1.3,0.6-1.9,2.3-1.9h12.9
				c0.8,0,1.4,0.2,1.8,0.5c0.4,0.3,0.6,0.8,0.5,1.3c0,0.3-0.1,0.5-0.2,0.8c-0.2,0.3-0.3,0.5-0.5,0.7c-0.4,0.4-0.7,0.8-0.8,1.2
				c-0.2,0.4-0.2,0.9-0.2,1.5l1.4,12.5l7.8-11.2L36,15.9c-0.1-0.7-0.2-1.2-0.5-1.6c-0.3-0.4-0.7-0.8-1.1-1.2
				c-0.3-0.3-0.6-0.6-0.7-0.8c-0.1-0.2-0.2-0.4-0.2-0.7c-0.2-1.3,0.6-1.9,2.3-1.9h13c0.8,0,1.4,0.2,1.8,0.5s0.6,0.8,0.6,1.3
				c0,0.5-0.2,1-0.7,1.5c-0.3,0.4-0.6,0.8-0.8,1.2c-0.2,0.4-0.2,0.9-0.2,1.5l0.6,11.3l7-12.3c1.1-2,2.3-3.4,3.3-4.1
				c1.1-0.8,2.5-1.2,4.2-1.2c1.6,0,2.8,0.5,3.8,1.4c1,0.9,1.5,2.2,1.5,3.8C69.8,16,69.5,17,68.9,18z"/>
			<path class="st3" d="M91.2,18.7c2,1.4,3,3.2,3,5.4c0,0.7-0.1,1.3-0.2,1.8c-0.5,2.3-2,3.9-4.3,4.9c-2.4,1-5.2,1.5-8.4,1.5
				c-1.6,0-3.2-0.1-4.6-0.3c0,1.8,0.4,3.1,1.5,3.8c1,0.7,2.4,1.1,4.2,1.1c0.8,0,1.6-0.1,2.4-0.3c0.8-0.2,1.7-0.5,2.9-0.9
				c1-0.3,1.6-0.5,2-0.5c0.4,0,0.6,0.2,0.6,0.7c0,1.2-0.4,2.5-1.4,3.8c-0.9,1.3-2.3,2.5-4.2,3.4c-1.8,0.9-4.1,1.4-6.7,1.4
				c-3.8,0-7-1-9.5-2.9c-2.5-1.9-3.7-4.8-3.7-8.5c0-1,0.1-2.3,0.4-3.6c0.9-4.3,2.8-7.5,5.7-9.6c2.9-2.2,6.5-3.2,10.7-3.2
				C86,16.6,89.2,17.3,91.2,18.7z M77.6,28.9c1.5,0,2.6-0.7,3.3-2c0.8-1.4,1.1-2.9,1.1-4.5c0-1-0.3-1.5-0.8-1.5
				c-0.4,0-0.8,0.3-1.4,0.9s-1,1.5-1.5,2.7c-0.5,1.2-0.9,2.7-1.3,4.3C77.1,28.9,77.3,28.9,77.6,28.9z"/>
			<path class="st3" d="M121.2,19.1c2.4,1.5,3.6,3.7,3.6,6.7c0,1.1-0.2,2.4-0.6,3.9l-2.1,7.2c0,0.1-0.1,0.3-0.1,0.5
				c0,0.6,0.2,0.8,0.7,0.8c0.4,0,0.8-0.2,1.1-0.5c0.3-0.4,0.5-0.5,0.6-0.5c0.2,0,0.3,0.1,0.4,0.4c0.1,0.2,0.2,0.5,0.2,0.8
				c0,0.9-0.3,1.9-1.1,2.9c-0.7,1-1.7,1.8-3,2.4s-2.6,0.9-4.1,0.9c-1.8,0-3.3-0.3-4.6-1c-1.3-0.7-2.2-1.6-2.7-2.9
				c-1,1.2-2.3,2.2-3.7,2.9c-1.4,0.7-2.9,1-4.6,1c-1.8,0-3.4-0.4-4.6-1.1c-1.2-0.7-2.2-1.6-2.8-2.8c-0.6-1.1-0.9-2.3-0.9-3.6
				c0-0.6,0.1-1.1,0.2-1.6c0.6-2.4,1.8-4.2,3.6-5.4c1.9-1.2,4.1-1.8,6.6-1.8c2.9,0,5.7,0.5,8.5,1.4l1.3-3.4c0.5-1.5,0.7-2.6,0.7-3.4
				c0-0.8-0.3-1.5-0.8-1.9c-0.5-0.4-1.3-0.6-2.4-0.6c0.2,0.6,0.3,1.1,0.3,1.7c0,1.3-0.5,2.4-1.5,3.3c-1,0.9-2.4,1.4-4.2,1.4
				c-1.7,0-3-0.4-4-1.1c-1-0.7-1.4-1.7-1.4-2.8c0-1.7,1-3.2,2.9-4.3c1.9-1.1,4.9-1.7,8.9-1.7C115.7,16.8,118.8,17.6,121.2,19.1z
				 M106.4,33.7c-0.6,0.7-0.9,1.6-0.9,2.4c0,0.6,0.1,1,0.4,1.4c0.3,0.3,0.6,0.5,1.1,0.5c0.5,0,0.9-0.2,1.5-0.5
				c0.5-0.4,0.9-0.9,1.2-1.6l1.1-3.1c-0.6-0.1-1.2-0.2-2-0.2C107.8,32.6,107,33,106.4,33.7z"/>
			<path class="st3" d="M151.9,17.9c0.4,0.3,0.5,0.7,0.5,1.1c0,0.1,0,0.4-0.1,0.7c-0.5,1.5-1.5,2.3-3.1,2.3h-3l-3.9,12.8
				c-0.2,0.5-0.3,1.1-0.3,1.6c0,0.6,0.2,1.1,0.5,1.3c0.3,0.2,0.8,0.4,1.5,0.4c0.6,0,1.2-0.1,2.1-0.2c0.4-0.1,0.8-0.2,1.1-0.2
				c0.2,0,0.4,0.1,0.5,0.2c0.1,0.2,0.2,0.4,0.2,0.6c0,0.7-0.5,1.5-1.5,2.5c-1.1,1-2.5,1.8-4.3,2.5c-1.8,0.7-3.8,1.1-6,1.1
				c-2.4,0-4.2-0.5-5.7-1.6c-1.4-1.1-2.1-2.5-2.1-4.4c0-0.9,0.1-1.7,0.4-2.5l3.3-10.3c0.2-0.6,0.3-1.1,0.3-1.4
				c0-0.7-0.2-1.3-0.5-1.8c-0.3-0.5-0.8-1-1.4-1.5c-0.5-0.5-0.9-0.9-1.1-1.2c-0.2-0.3-0.3-0.7-0.2-1.2c0.1-0.5,0.4-0.8,0.9-1
				c0.5-0.2,1.2-0.4,2.1-0.4h2.9l3.3-3.3c1.1-1.1,2.2-1.9,3.1-2.4c1-0.5,2.2-0.7,3.7-0.7c2.2,0,3.3,0.8,3.3,2.5c0,0.5-0.1,1-0.2,1.5
				l-0.7,2.4h2.8C151,17.5,151.5,17.7,151.9,17.9z"/>
			<path class="st3" d="M181.4,37.2c-0.1,0.1-0.1,0.3-0.1,0.6c0,0.2,0.1,0.4,0.2,0.6c0.1,0.1,0.3,0.2,0.5,0.2c0.4,0,0.8-0.2,1.1-0.5
				c0.3-0.4,0.5-0.5,0.6-0.5c0.2,0,0.3,0.1,0.4,0.3c0.1,0.2,0.2,0.5,0.2,0.8c0,1-0.3,2-1,2.9c-0.7,1-1.7,1.7-3,2.3
				c-1.3,0.6-2.9,0.9-4.8,0.9c-2.3,0-4.1-0.5-5.5-1.6c-1.4-1.1-2-2.5-2.1-4.2c0-1.3,0.3-2.7,0.9-4.3l2.9-7.5
				c0.2-0.5,0.3-0.8,0.3-1.1c0-0.5-0.1-0.8-0.4-1.1c-0.3-0.3-0.7-0.4-1.1-0.4c-0.7,0-1.3,0.3-2,0.9c-0.7,0.6-1.2,1.6-1.6,2.9v-0.1
				l-3.3,10.6c-0.1,0.4-0.2,0.8-0.2,1.1c0,0.5,0.1,0.8,0.3,1.1c0.2,0.3,0.4,0.5,0.7,0.8c0.2,0.2,0.4,0.4,0.5,0.6
				c0.1,0.2,0.1,0.4,0.1,0.6c-0.2,0.5-0.5,0.8-1,1s-1.3,0.3-2.4,0.3h-11.9c-0.9,0-1.6-0.1-2-0.4c-0.4-0.3-0.6-0.7-0.4-1.2
				c0.1-0.4,0.5-0.8,1.1-1.1c0.5-0.3,1-0.6,1.3-1c0.3-0.4,0.6-1,0.9-1.8l7.9-25.9c0.1-0.3,0.2-0.6,0.2-0.8c0-0.4-0.1-0.7-0.3-0.9
				c-0.2-0.2-0.4-0.5-0.8-0.7c-0.3-0.3-0.6-0.5-0.8-0.7s-0.2-0.5-0.1-0.8c0.2-0.8,1.3-1.5,3.3-2.1c2-0.6,4-0.9,6.2-0.9
				c2,0,3.5,0.4,4.4,1.1c1,0.8,1.4,1.8,1.4,3.1c0,0.8-0.1,1.5-0.4,2.2l-2.8,9.2c1.4-1.8,2.8-3,4.3-3.7s3.1-1,4.9-1
				c2.1,0,3.8,0.6,5.1,1.9c1.3,1.3,1.9,2.9,1.9,5c0,1.1-0.2,2.1-0.5,3.2L181.4,37.2z"/>
			<path class="st3" d="M213.6,18.7c2,1.4,3,3.2,3,5.4c0,0.7-0.1,1.3-0.2,1.8c-0.5,2.3-2,3.9-4.3,4.9c-2.4,1-5.2,1.5-8.4,1.5
				c-1.6,0-3.2-0.1-4.6-0.3c0,1.8,0.5,3.1,1.5,3.8c1,0.7,2.4,1.1,4.2,1.1c0.8,0,1.6-0.1,2.4-0.3c0.8-0.2,1.7-0.5,2.9-0.9
				c1-0.3,1.6-0.5,2-0.5c0.4,0,0.6,0.2,0.6,0.7c0,1.2-0.4,2.5-1.4,3.8c-0.9,1.3-2.3,2.5-4.2,3.4c-1.8,0.9-4.1,1.4-6.7,1.4
				c-3.8,0-7-1-9.5-2.9c-2.5-1.9-3.7-4.8-3.7-8.5c0-1,0.1-2.3,0.4-3.6c0.9-4.3,2.8-7.5,5.7-9.6c2.9-2.2,6.5-3.2,10.7-3.2
				C208.4,16.6,211.6,17.3,213.6,18.7z M200,28.9c1.5,0,2.6-0.7,3.3-2c0.8-1.4,1.1-2.9,1.1-4.5c0-1-0.3-1.5-0.8-1.5
				c-0.4,0-0.8,0.3-1.4,0.9c-0.5,0.6-1,1.5-1.5,2.7c-0.5,1.2-0.9,2.7-1.3,4.3C199.5,28.9,199.7,28.9,200,28.9z"/>
			<path class="st3" d="M245.7,18.6c1.2,1.2,1.7,2.6,1.7,4.4c0,0.7-0.1,1.3-0.2,1.8c-0.3,1.4-1,2.5-2,3.3c-1,0.8-2.1,1.1-3.5,1.1
				c-1.3,0-2.3-0.3-3-0.9c-0.7-0.6-1.3-1.5-1.8-2.5c-0.3-0.6-0.5-1-0.8-1.3c-0.2-0.3-0.5-0.4-0.8-0.4c-0.3,0-0.7,0.1-0.9,0.4
				c-0.3,0.3-0.5,0.8-0.7,1.5l-4,13c-0.1,0.2-0.1,0.4-0.1,0.8c0,0.5,0.1,0.8,0.4,1.1c0.3,0.3,0.6,0.6,1.1,0.9
				c0.4,0.3,0.7,0.5,0.8,0.7s0.2,0.4,0.2,0.7c-0.1,0.5-0.3,0.8-0.8,1c-0.4,0.2-1.2,0.3-2.2,0.3h-13.3c-0.9,0-1.6-0.1-1.9-0.4
				c-0.4-0.3-0.5-0.7-0.4-1.2c0.1-0.4,0.5-0.8,1.1-1.1c0.5-0.3,1-0.6,1.3-1c0.3-0.4,0.6-1,0.9-1.8l4.6-15c0.1-0.2,0.1-0.4,0.1-0.7
				c0-0.4-0.1-0.7-0.2-0.9c-0.2-0.2-0.4-0.5-0.8-0.8c-0.3-0.3-0.6-0.5-0.7-0.7s-0.2-0.5-0.1-0.8c0.2-0.8,1.3-1.5,3.3-2.1
				c2-0.6,4-0.9,6.2-0.9c1.4,0,2.6,0.3,3.5,1c0.9,0.6,1.5,1.6,1.8,2.7c1.7-2.5,3.8-3.7,6.6-3.7C243,16.8,244.5,17.4,245.7,18.6z"/>
		</g>
		<g>
			<rect y="1.5" class="st0" width="247.2" height="49.6"/>
		</g>
		<g class="st1">
			<path class="st4" d="M64.4,13.5c-0.6,0.9-1.3,1.6-2.2,2.1c-0.9,0.5-1.7,0.7-2.6,0.7c-0.8,0-1.6-0.2-2.3-0.6
				c-0.7-0.4-1.2-0.9-1.4-1.4L43.3,35.4c-1,1.6-1.8,2.8-2.6,3.5c-0.8,0.7-1.7,1-2.7,1c-2.3,0-3.6-1.5-4-4.5l-1.7-15.3L21.9,35.4
				c-1.2,1.8-2.2,3-2.9,3.6c-0.7,0.6-1.6,0.9-2.6,0.9c-2.1,0-3.4-1.7-3.8-5L9.2,11.4c-0.1-0.7-0.3-1.2-0.6-1.7
				C8.3,9.3,7.9,8.9,7.5,8.5C7.2,8.2,7,8,6.8,7.8C6.7,7.6,6.6,7.4,6.6,7.1C6.4,5.9,7.2,5.2,8.9,5.2h12.9c0.8,0,1.4,0.2,1.8,0.5
				C24,6,24.2,6.5,24.2,7c0,0.3-0.1,0.5-0.2,0.8c-0.2,0.3-0.3,0.5-0.5,0.7c-0.4,0.4-0.7,0.8-0.8,1.2c-0.2,0.4-0.2,0.9-0.2,1.5
				l1.4,12.5l7.8-11.2l-0.2-1.2c-0.1-0.7-0.2-1.2-0.5-1.6c-0.3-0.4-0.7-0.8-1.1-1.2c-0.3-0.3-0.6-0.6-0.7-0.8
				c-0.1-0.2-0.2-0.4-0.2-0.7c-0.2-1.3,0.6-1.9,2.3-1.9h13c0.8,0,1.4,0.2,1.8,0.5s0.6,0.8,0.6,1.3c0,0.5-0.2,1-0.7,1.5
				C45.5,9,45.2,9.4,45,9.7c-0.2,0.4-0.2,0.9-0.2,1.5l0.6,11.3l7-12.3c1.1-2,2.3-3.4,3.3-4.1C56.9,5.4,58.3,5,60,5
				c1.6,0,2.8,0.5,3.8,1.4c1,0.9,1.5,2.2,1.5,3.8C65.3,11.5,65,12.5,64.4,13.5z"/>
			<path class="st4" d="M86.7,14.2c2,1.4,3,3.2,3,5.4c0,0.7-0.1,1.3-0.2,1.8c-0.5,2.3-2,3.9-4.3,4.9c-2.4,1-5.2,1.5-8.4,1.5
				c-1.6,0-3.2-0.1-4.6-0.3c0,1.8,0.4,3.1,1.5,3.8c1,0.7,2.4,1.1,4.2,1.1c0.8,0,1.6-0.1,2.4-0.3c0.8-0.2,1.7-0.5,2.9-0.9
				c1-0.3,1.6-0.5,2-0.5c0.4,0,0.6,0.2,0.6,0.7c0,1.2-0.4,2.5-1.4,3.8c-0.9,1.3-2.3,2.5-4.2,3.4c-1.8,0.9-4.1,1.4-6.7,1.4
				c-3.8,0-7-1-9.5-2.9c-2.5-1.9-3.7-4.8-3.7-8.5c0-1,0.1-2.3,0.4-3.6c0.9-4.3,2.8-7.5,5.7-9.6c2.9-2.2,6.5-3.2,10.7-3.2
				C81.5,12.1,84.7,12.8,86.7,14.2z M73.1,24.4c1.5,0,2.6-0.7,3.3-2c0.8-1.4,1.1-2.9,1.1-4.5c0-1-0.3-1.5-0.8-1.5
				c-0.4,0-0.8,0.3-1.4,0.9s-1,1.5-1.5,2.7c-0.5,1.2-0.9,2.7-1.3,4.3C72.6,24.4,72.8,24.4,73.1,24.4z"/>
			<path class="st4" d="M116.7,14.6c2.4,1.5,3.6,3.7,3.6,6.7c0,1.1-0.2,2.4-0.6,3.9l-2.1,7.2c0,0.1-0.1,0.3-0.1,0.5
				c0,0.6,0.2,0.8,0.7,0.8c0.4,0,0.8-0.2,1.1-0.5c0.3-0.4,0.5-0.5,0.6-0.5c0.2,0,0.3,0.1,0.4,0.4c0.1,0.2,0.2,0.5,0.2,0.8
				c0,0.9-0.3,1.9-1.1,2.9c-0.7,1-1.7,1.8-3,2.4s-2.6,0.9-4.1,0.9c-1.8,0-3.3-0.3-4.6-1c-1.3-0.7-2.2-1.6-2.7-2.9
				c-1,1.2-2.3,2.2-3.7,2.9c-1.4,0.7-2.9,1-4.6,1c-1.8,0-3.4-0.4-4.6-1.1c-1.2-0.7-2.2-1.6-2.8-2.8c-0.6-1.1-0.9-2.3-0.9-3.6
				c0-0.6,0.1-1.1,0.2-1.6c0.6-2.4,1.8-4.2,3.6-5.4c1.9-1.2,4.1-1.8,6.6-1.8c2.9,0,5.7,0.5,8.5,1.4l1.3-3.4c0.5-1.5,0.7-2.6,0.7-3.4
				c0-0.8-0.3-1.5-0.8-1.9c-0.5-0.4-1.3-0.6-2.4-0.6c0.2,0.6,0.3,1.1,0.3,1.7c0,1.3-0.5,2.4-1.5,3.3c-1,0.9-2.4,1.4-4.2,1.4
				c-1.7,0-3-0.4-4-1.1c-1-0.7-1.4-1.7-1.4-2.8c0-1.7,1-3.2,2.9-4.3c1.9-1.1,4.9-1.7,8.9-1.7C111.2,12.3,114.3,13.1,116.7,14.6z
				 M101.9,29.2c-0.6,0.7-0.9,1.6-0.9,2.4c0,0.6,0.1,1,0.4,1.4c0.3,0.3,0.6,0.5,1.1,0.5c0.5,0,0.9-0.2,1.5-0.5
				c0.5-0.4,0.9-0.9,1.2-1.6l1.1-3.1c-0.6-0.1-1.2-0.2-2-0.2C103.3,28.1,102.5,28.5,101.9,29.2z"/>
			<path class="st4" d="M147.4,13.4c0.4,0.3,0.5,0.7,0.5,1.1c0,0.1,0,0.4-0.1,0.7c-0.5,1.5-1.5,2.3-3.1,2.3h-3l-3.9,12.8
				c-0.2,0.5-0.3,1.1-0.3,1.6c0,0.6,0.2,1.1,0.5,1.3c0.3,0.2,0.8,0.4,1.5,0.4c0.6,0,1.2-0.1,2.1-0.2c0.4-0.1,0.8-0.2,1.1-0.2
				c0.2,0,0.4,0.1,0.5,0.2c0.1,0.2,0.2,0.4,0.2,0.6c0,0.7-0.5,1.5-1.5,2.5c-1.1,1-2.5,1.8-4.3,2.5c-1.8,0.7-3.8,1.1-6,1.1
				c-2.4,0-4.2-0.5-5.7-1.6c-1.4-1.1-2.1-2.5-2.1-4.4c0-0.9,0.1-1.7,0.4-2.5l3.3-10.3c0.2-0.6,0.3-1.1,0.3-1.4
				c0-0.7-0.2-1.3-0.5-1.8c-0.3-0.5-0.8-1-1.4-1.5c-0.5-0.5-0.9-0.9-1.1-1.2c-0.2-0.3-0.3-0.7-0.2-1.2c0.1-0.5,0.4-0.8,0.9-1
				c0.5-0.2,1.2-0.4,2.1-0.4h2.9l3.3-3.3c1.1-1.1,2.2-1.9,3.1-2.4c1-0.5,2.2-0.7,3.7-0.7c2.2,0,3.3,0.8,3.3,2.5c0,0.5-0.1,1-0.2,1.5
				l-0.7,2.4h2.8C146.5,13,147,13.2,147.4,13.4z"/>
			<path class="st4" d="M176.9,32.7c-0.1,0.1-0.1,0.3-0.1,0.6c0,0.2,0.1,0.4,0.2,0.6c0.1,0.1,0.3,0.2,0.5,0.2c0.4,0,0.8-0.2,1.1-0.5
				c0.3-0.4,0.5-0.5,0.6-0.5c0.2,0,0.3,0.1,0.4,0.3c0.1,0.2,0.2,0.5,0.2,0.8c0,1-0.3,2-1,2.9c-0.7,1-1.7,1.7-3,2.3
				c-1.3,0.6-2.9,0.9-4.8,0.9c-2.3,0-4.1-0.5-5.5-1.6c-1.4-1.1-2-2.5-2.1-4.2c0-1.3,0.3-2.7,0.9-4.3l2.9-7.5
				c0.2-0.5,0.3-0.8,0.3-1.1c0-0.5-0.1-0.8-0.4-1.1c-0.3-0.3-0.7-0.4-1.1-0.4c-0.7,0-1.3,0.3-2,0.9c-0.7,0.6-1.2,1.6-1.6,2.9v-0.1
				l-3.3,10.6c-0.1,0.4-0.2,0.8-0.2,1.1c0,0.5,0.1,0.8,0.3,1.1c0.2,0.3,0.4,0.5,0.7,0.8c0.2,0.2,0.4,0.4,0.5,0.6
				c0.1,0.2,0.1,0.4,0.1,0.6c-0.2,0.5-0.5,0.8-1,1s-1.3,0.3-2.4,0.3H145c-0.9,0-1.6-0.1-2-0.4c-0.4-0.3-0.6-0.7-0.4-1.2
				c0.1-0.4,0.5-0.8,1.1-1.1c0.5-0.3,1-0.6,1.3-1c0.3-0.4,0.6-1,0.9-1.8l7.9-25.9c0.1-0.3,0.2-0.6,0.2-0.8c0-0.4-0.1-0.7-0.3-0.9
				c-0.2-0.2-0.4-0.5-0.8-0.7c-0.3-0.3-0.6-0.5-0.8-0.7s-0.2-0.5-0.1-0.8c0.2-0.8,1.3-1.5,3.3-2.1c2-0.6,4-0.9,6.2-0.9
				c2,0,3.5,0.4,4.4,1.1c1,0.8,1.4,1.8,1.4,3.1c0,0.8-0.1,1.5-0.4,2.2l-2.8,9.2c1.4-1.8,2.8-3,4.3-3.7s3.1-1,4.9-1
				c2.1,0,3.8,0.6,5.1,1.9c1.3,1.3,1.9,2.9,1.9,5c0,1.1-0.2,2.1-0.5,3.2L176.9,32.7z"/>
			<path class="st4" d="M209.1,14.2c2,1.4,3,3.2,3,5.4c0,0.7-0.1,1.3-0.2,1.8c-0.5,2.3-2,3.9-4.3,4.9c-2.4,1-5.2,1.5-8.4,1.5
				c-1.6,0-3.2-0.1-4.6-0.3c0,1.8,0.5,3.1,1.5,3.8c1,0.7,2.4,1.1,4.2,1.1c0.8,0,1.6-0.1,2.4-0.3c0.8-0.2,1.7-0.5,2.9-0.9
				c1-0.3,1.6-0.5,2-0.5c0.4,0,0.6,0.2,0.6,0.7c0,1.2-0.4,2.5-1.4,3.8c-0.9,1.3-2.3,2.5-4.2,3.4c-1.8,0.9-4.1,1.4-6.7,1.4
				c-3.8,0-7-1-9.5-2.9c-2.5-1.9-3.7-4.8-3.7-8.5c0-1,0.1-2.3,0.4-3.6c0.9-4.3,2.8-7.5,5.7-9.6c2.9-2.2,6.5-3.2,10.7-3.2
				C203.9,12.1,207.1,12.8,209.1,14.2z M195.5,24.4c1.5,0,2.6-0.7,3.3-2c0.8-1.4,1.1-2.9,1.1-4.5c0-1-0.3-1.5-0.8-1.5
				c-0.4,0-0.8,0.3-1.4,0.9c-0.5,0.6-1,1.5-1.5,2.7c-0.5,1.2-0.9,2.7-1.3,4.3C195,24.4,195.2,24.4,195.5,24.4z"/>
			<path class="st4" d="M241.2,14.1c1.2,1.2,1.7,2.6,1.7,4.4c0,0.7-0.1,1.3-0.2,1.8c-0.3,1.4-1,2.5-2,3.3c-1,0.8-2.1,1.1-3.5,1.1
				c-1.3,0-2.3-0.3-3-0.9c-0.7-0.6-1.3-1.5-1.8-2.5c-0.3-0.6-0.5-1-0.8-1.3c-0.2-0.3-0.5-0.4-0.8-0.4c-0.3,0-0.7,0.1-0.9,0.4
				c-0.3,0.3-0.5,0.8-0.7,1.5l-4,13c-0.1,0.2-0.1,0.4-0.1,0.8c0,0.5,0.1,0.8,0.4,1.1c0.3,0.3,0.6,0.6,1.1,0.9
				c0.4,0.3,0.7,0.5,0.8,0.7s0.2,0.4,0.2,0.7c-0.1,0.5-0.3,0.8-0.8,1c-0.4,0.2-1.2,0.3-2.2,0.3h-13.3c-0.9,0-1.6-0.1-1.9-0.4
				c-0.4-0.3-0.5-0.7-0.4-1.2c0.1-0.4,0.5-0.8,1.1-1.1c0.5-0.3,1-0.6,1.3-1c0.3-0.4,0.6-1,0.9-1.8l4.6-15c0.1-0.2,0.1-0.4,0.1-0.7
				c0-0.4-0.1-0.7-0.2-0.9c-0.2-0.2-0.4-0.5-0.8-0.8c-0.3-0.3-0.6-0.5-0.7-0.7s-0.2-0.5-0.1-0.8c0.2-0.8,1.3-1.5,3.3-2.1
				c2-0.6,4-0.9,6.2-0.9c1.4,0,2.6,0.3,3.5,1c0.9,0.6,1.5,1.6,1.8,2.7c1.7-2.5,3.8-3.7,6.6-3.7C238.5,12.3,240,12.9,241.2,14.1z"/>
		</g>
	</g>
	<g>
		<g>
			<rect x="3" y="4.5" class="st0" width="247.2" height="49.6"/>
		</g>
		<g class="st1">
			<path class="st5" d="M67.4,16.5c-0.6,0.9-1.3,1.6-2.2,2.1c-0.9,0.5-1.7,0.7-2.6,0.7c-0.8,0-1.6-0.2-2.3-0.6
				c-0.7-0.4-1.2-0.9-1.4-1.4L46.3,38.4c-1,1.6-1.8,2.8-2.6,3.5c-0.8,0.7-1.7,1-2.7,1c-2.3,0-3.6-1.5-4-4.5l-1.7-15.3L24.9,38.4
				c-1.2,1.8-2.2,3-2.9,3.6c-0.7,0.6-1.6,0.9-2.6,0.9c-2.1,0-3.4-1.7-3.8-5l-3.3-23.5c-0.1-0.7-0.3-1.2-0.6-1.7
				c-0.3-0.4-0.7-0.8-1.1-1.2c-0.3-0.3-0.5-0.5-0.7-0.7c-0.1-0.2-0.2-0.4-0.2-0.7c-0.2-1.3,0.6-1.9,2.3-1.9h12.9
				c0.8,0,1.4,0.2,1.8,0.5C27,9,27.2,9.5,27.2,10c0,0.3-0.1,0.5-0.2,0.8c-0.2,0.3-0.3,0.5-0.5,0.7c-0.4,0.4-0.7,0.8-0.8,1.2
				c-0.2,0.4-0.2,0.9-0.2,1.5l1.4,12.5l7.8-11.2l-0.2-1.2c-0.1-0.7-0.2-1.2-0.5-1.6c-0.3-0.4-0.7-0.8-1.1-1.2
				c-0.3-0.3-0.6-0.6-0.7-0.8c-0.1-0.2-0.2-0.4-0.2-0.7c-0.2-1.3,0.6-1.9,2.3-1.9h13c0.8,0,1.4,0.2,1.8,0.5s0.6,0.8,0.6,1.3
				c0,0.5-0.2,1-0.7,1.5c-0.3,0.4-0.6,0.8-0.8,1.2c-0.2,0.4-0.2,0.9-0.2,1.5l0.6,11.3l7-12.3c1.1-2,2.3-3.4,3.3-4.1
				C59.9,8.4,61.3,8,63,8c1.6,0,2.8,0.5,3.8,1.4c1,0.9,1.5,2.2,1.5,3.8C68.3,14.5,68,15.5,67.4,16.5z"/>
			<path class="st5" d="M89.7,17.2c2,1.4,3,3.2,3,5.4c0,0.7-0.1,1.3-0.2,1.8c-0.5,2.3-2,3.9-4.3,4.9c-2.4,1-5.2,1.5-8.4,1.5
				c-1.6,0-3.2-0.1-4.6-0.3c0,1.8,0.4,3.1,1.5,3.8c1,0.7,2.4,1.1,4.2,1.1c0.8,0,1.6-0.1,2.4-0.3c0.8-0.2,1.7-0.5,2.9-0.9
				c1-0.3,1.6-0.5,2-0.5c0.4,0,0.6,0.2,0.6,0.7c0,1.2-0.4,2.5-1.4,3.8c-0.9,1.3-2.3,2.5-4.2,3.4c-1.8,0.9-4.1,1.4-6.7,1.4
				c-3.8,0-7-1-9.5-2.9c-2.5-1.9-3.7-4.8-3.7-8.5c0-1,0.1-2.3,0.4-3.6c0.9-4.3,2.8-7.5,5.7-9.6c2.9-2.2,6.5-3.2,10.7-3.2
				C84.5,15.1,87.7,15.8,89.7,17.2z M76.1,27.4c1.5,0,2.6-0.7,3.3-2c0.8-1.4,1.1-2.9,1.1-4.5c0-1-0.3-1.5-0.8-1.5
				c-0.4,0-0.8,0.3-1.4,0.9s-1,1.5-1.5,2.7c-0.5,1.2-0.9,2.7-1.3,4.3C75.6,27.4,75.8,27.4,76.1,27.4z"/>
			<path class="st5" d="M119.7,17.6c2.4,1.5,3.6,3.7,3.6,6.7c0,1.1-0.2,2.4-0.6,3.9l-2.1,7.2c0,0.1-0.1,0.3-0.1,0.5
				c0,0.6,0.2,0.8,0.7,0.8c0.4,0,0.8-0.2,1.1-0.5c0.3-0.4,0.5-0.5,0.6-0.5c0.2,0,0.3,0.1,0.4,0.4c0.1,0.2,0.2,0.5,0.2,0.8
				c0,0.9-0.3,1.9-1.1,2.9c-0.7,1-1.7,1.8-3,2.4s-2.6,0.9-4.1,0.9c-1.8,0-3.3-0.3-4.6-1c-1.3-0.7-2.2-1.6-2.7-2.9
				c-1,1.2-2.3,2.2-3.7,2.9c-1.4,0.7-2.9,1-4.6,1c-1.8,0-3.4-0.4-4.6-1.1c-1.2-0.7-2.2-1.6-2.8-2.8c-0.6-1.1-0.9-2.3-0.9-3.6
				c0-0.6,0.1-1.1,0.2-1.6c0.6-2.4,1.8-4.2,3.6-5.4c1.9-1.2,4.1-1.8,6.6-1.8c2.9,0,5.7,0.5,8.5,1.4l1.3-3.4c0.5-1.5,0.7-2.6,0.7-3.4
				c0-0.8-0.3-1.5-0.8-1.9c-0.5-0.4-1.3-0.6-2.4-0.6c0.2,0.6,0.3,1.1,0.3,1.7c0,1.3-0.5,2.4-1.5,3.3c-1,0.9-2.4,1.4-4.2,1.4
				c-1.7,0-3-0.4-4-1.1c-1-0.7-1.4-1.7-1.4-2.8c0-1.7,1-3.2,2.9-4.3c1.9-1.1,4.9-1.7,8.9-1.7C114.2,15.3,117.3,16.1,119.7,17.6z
				 M104.9,32.2c-0.6,0.7-0.9,1.6-0.9,2.4c0,0.6,0.1,1,0.4,1.4c0.3,0.3,0.6,0.5,1.1,0.5c0.5,0,0.9-0.2,1.5-0.5
				c0.5-0.4,0.9-0.9,1.2-1.6l1.1-3.1c-0.6-0.1-1.2-0.2-2-0.2C106.3,31.1,105.5,31.5,104.9,32.2z"/>
			<path class="st5" d="M150.4,16.4c0.4,0.3,0.5,0.7,0.5,1.1c0,0.1,0,0.4-0.1,0.7c-0.5,1.5-1.5,2.3-3.1,2.3h-3l-3.9,12.8
				c-0.2,0.5-0.3,1.1-0.3,1.6c0,0.6,0.2,1.1,0.5,1.3c0.3,0.2,0.8,0.4,1.5,0.4c0.6,0,1.2-0.1,2.1-0.2c0.4-0.1,0.8-0.2,1.1-0.2
				c0.2,0,0.4,0.1,0.5,0.2c0.1,0.2,0.2,0.4,0.2,0.6c0,0.7-0.5,1.5-1.5,2.5c-1.1,1-2.5,1.8-4.3,2.5c-1.8,0.7-3.8,1.1-6,1.1
				c-2.4,0-4.2-0.5-5.7-1.6c-1.4-1.1-2.1-2.5-2.1-4.4c0-0.9,0.1-1.7,0.4-2.5l3.3-10.3c0.2-0.6,0.3-1.1,0.3-1.4
				c0-0.7-0.2-1.3-0.5-1.8c-0.3-0.5-0.8-1-1.4-1.5c-0.5-0.5-0.9-0.9-1.1-1.2c-0.2-0.3-0.3-0.7-0.2-1.2c0.1-0.5,0.4-0.8,0.9-1
				c0.5-0.2,1.2-0.4,2.1-0.4h2.9l3.3-3.3c1.1-1.1,2.2-1.9,3.1-2.4c1-0.5,2.2-0.7,3.7-0.7c2.2,0,3.3,0.8,3.3,2.5c0,0.5-0.1,1-0.2,1.5
				l-0.7,2.4h2.8C149.5,16,150,16.2,150.4,16.4z"/>
			<path class="st5" d="M179.9,35.7c-0.1,0.1-0.1,0.3-0.1,0.6c0,0.2,0.1,0.4,0.2,0.6c0.1,0.1,0.3,0.2,0.5,0.2c0.4,0,0.8-0.2,1.1-0.5
				c0.3-0.4,0.5-0.5,0.6-0.5c0.2,0,0.3,0.1,0.4,0.3c0.1,0.2,0.2,0.5,0.2,0.8c0,1-0.3,2-1,2.9c-0.7,1-1.7,1.7-3,2.3
				c-1.3,0.6-2.9,0.9-4.8,0.9c-2.3,0-4.1-0.5-5.5-1.6c-1.4-1.1-2-2.5-2.1-4.2c0-1.3,0.3-2.7,0.9-4.3l2.9-7.5
				c0.2-0.5,0.3-0.8,0.3-1.1c0-0.5-0.1-0.8-0.4-1.1c-0.3-0.3-0.7-0.4-1.1-0.4c-0.7,0-1.3,0.3-2,0.9c-0.7,0.6-1.2,1.6-1.6,2.9v-0.1
				l-3.3,10.6c-0.1,0.4-0.2,0.8-0.2,1.1c0,0.5,0.1,0.8,0.3,1.1c0.2,0.3,0.4,0.5,0.7,0.8c0.2,0.2,0.4,0.4,0.5,0.6
				c0.1,0.2,0.1,0.4,0.1,0.6c-0.2,0.5-0.5,0.8-1,1s-1.3,0.3-2.4,0.3H148c-0.9,0-1.6-0.1-2-0.4c-0.4-0.3-0.6-0.7-0.4-1.2
				c0.1-0.4,0.5-0.8,1.1-1.1c0.5-0.3,1-0.6,1.3-1c0.3-0.4,0.6-1,0.9-1.8l7.9-25.9c0.1-0.3,0.2-0.6,0.2-0.8c0-0.4-0.1-0.7-0.3-0.9
				c-0.2-0.2-0.4-0.5-0.8-0.7c-0.3-0.3-0.6-0.5-0.8-0.7s-0.2-0.5-0.1-0.8c0.2-0.8,1.3-1.5,3.3-2.1c2-0.6,4-0.9,6.2-0.9
				c2,0,3.5,0.4,4.4,1.1c1,0.8,1.4,1.8,1.4,3.1c0,0.8-0.1,1.5-0.4,2.2l-2.8,9.2c1.4-1.8,2.8-3,4.3-3.7s3.1-1,4.9-1
				c2.1,0,3.8,0.6,5.1,1.9c1.3,1.3,1.9,2.9,1.9,5c0,1.1-0.2,2.1-0.5,3.2L179.9,35.7z"/>
			<path class="st5" d="M212.1,17.2c2,1.4,3,3.2,3,5.4c0,0.7-0.1,1.3-0.2,1.8c-0.5,2.3-2,3.9-4.3,4.9c-2.4,1-5.2,1.5-8.4,1.5
				c-1.6,0-3.2-0.1-4.6-0.3c0,1.8,0.5,3.1,1.5,3.8c1,0.7,2.4,1.1,4.2,1.1c0.8,0,1.6-0.1,2.4-0.3c0.8-0.2,1.7-0.5,2.9-0.9
				c1-0.3,1.6-0.5,2-0.5c0.4,0,0.6,0.2,0.6,0.7c0,1.2-0.4,2.5-1.4,3.8c-0.9,1.3-2.3,2.5-4.2,3.4c-1.8,0.9-4.1,1.4-6.7,1.4
				c-3.8,0-7-1-9.5-2.9c-2.5-1.9-3.7-4.8-3.7-8.5c0-1,0.1-2.3,0.4-3.6c0.9-4.3,2.8-7.5,5.7-9.6c2.9-2.2,6.5-3.2,10.7-3.2
				C206.9,15.1,210.1,15.8,212.1,17.2z M198.5,27.4c1.5,0,2.6-0.7,3.3-2c0.8-1.4,1.1-2.9,1.1-4.5c0-1-0.3-1.5-0.8-1.5
				c-0.4,0-0.8,0.3-1.4,0.9c-0.5,0.6-1,1.5-1.5,2.7c-0.5,1.2-0.9,2.7-1.3,4.3C198,27.4,198.2,27.4,198.5,27.4z"/>
			<path class="st5" d="M244.2,17.1c1.2,1.2,1.7,2.6,1.7,4.4c0,0.7-0.1,1.3-0.2,1.8c-0.3,1.4-1,2.5-2,3.3c-1,0.8-2.1,1.1-3.5,1.1
				c-1.3,0-2.3-0.3-3-0.9c-0.7-0.6-1.3-1.5-1.8-2.5c-0.3-0.6-0.5-1-0.8-1.3c-0.2-0.3-0.5-0.4-0.8-0.4c-0.3,0-0.7,0.1-0.9,0.4
				c-0.3,0.3-0.5,0.8-0.7,1.5l-4,13c-0.1,0.2-0.1,0.4-0.1,0.8c0,0.5,0.1,0.8,0.4,1.1c0.3,0.3,0.6,0.6,1.1,0.9
				c0.4,0.3,0.7,0.5,0.8,0.7s0.2,0.4,0.2,0.7c-0.1,0.5-0.3,0.8-0.8,1c-0.4,0.2-1.2,0.3-2.2,0.3h-13.3c-0.9,0-1.6-0.1-1.9-0.4
				c-0.4-0.3-0.5-0.7-0.4-1.2c0.1-0.4,0.5-0.8,1.1-1.1c0.5-0.3,1-0.6,1.3-1c0.3-0.4,0.6-1,0.9-1.8l4.6-15c0.1-0.2,0.1-0.4,0.1-0.7
				c0-0.4-0.1-0.7-0.2-0.9c-0.2-0.2-0.4-0.5-0.8-0.8c-0.3-0.3-0.6-0.5-0.7-0.7s-0.2-0.5-0.1-0.8c0.2-0.8,1.3-1.5,3.3-2.1
				c2-0.6,4-0.9,6.2-0.9c1.4,0,2.6,0.3,3.5,1c0.9,0.6,1.5,1.6,1.8,2.7c1.7-2.5,3.8-3.7,6.6-3.7C241.5,15.3,243,15.9,244.2,17.1z"/>
		</g>
		<g>
			<rect y="1.5" class="st0" width="247.2" height="49.6"/>
		</g>
		<g class="st1">
			<path class="st6" d="M64.4,13.5c-0.6,0.9-1.3,1.6-2.2,2.1c-0.9,0.5-1.7,0.7-2.6,0.7c-0.8,0-1.6-0.2-2.3-0.6
				c-0.7-0.4-1.2-0.9-1.4-1.4L43.3,35.4c-1,1.6-1.8,2.8-2.6,3.5c-0.8,0.7-1.7,1-2.7,1c-2.3,0-3.6-1.5-4-4.5l-1.7-15.3L21.9,35.4
				c-1.2,1.8-2.2,3-2.9,3.6c-0.7,0.6-1.6,0.9-2.6,0.9c-2.1,0-3.4-1.7-3.8-5L9.2,11.4c-0.1-0.7-0.3-1.2-0.6-1.7
				C8.3,9.3,7.9,8.9,7.5,8.5C7.2,8.2,7,8,6.8,7.8C6.7,7.6,6.6,7.4,6.6,7.1C6.4,5.9,7.2,5.2,8.9,5.2h12.9c0.8,0,1.4,0.2,1.8,0.5
				C24,6,24.2,6.5,24.2,7c0,0.3-0.1,0.5-0.2,0.8c-0.2,0.3-0.3,0.5-0.5,0.7c-0.4,0.4-0.7,0.8-0.8,1.2c-0.2,0.4-0.2,0.9-0.2,1.5
				l1.4,12.5l7.8-11.2l-0.2-1.2c-0.1-0.7-0.2-1.2-0.5-1.6c-0.3-0.4-0.7-0.8-1.1-1.2c-0.3-0.3-0.6-0.6-0.7-0.8
				c-0.1-0.2-0.2-0.4-0.2-0.7c-0.2-1.3,0.6-1.9,2.3-1.9h13c0.8,0,1.4,0.2,1.8,0.5s0.6,0.8,0.6,1.3c0,0.5-0.2,1-0.7,1.5
				C45.5,9,45.2,9.4,45,9.7c-0.2,0.4-0.2,0.9-0.2,1.5l0.6,11.3l7-12.3c1.1-2,2.3-3.4,3.3-4.1C56.9,5.4,58.3,5,60,5
				c1.6,0,2.8,0.5,3.8,1.4c1,0.9,1.5,2.2,1.5,3.8C65.3,11.5,65,12.5,64.4,13.5z"/>
			<path class="st6" d="M86.7,14.2c2,1.4,3,3.2,3,5.4c0,0.7-0.1,1.3-0.2,1.8c-0.5,2.3-2,3.9-4.3,4.9c-2.4,1-5.2,1.5-8.4,1.5
				c-1.6,0-3.2-0.1-4.6-0.3c0,1.8,0.4,3.1,1.5,3.8c1,0.7,2.4,1.1,4.2,1.1c0.8,0,1.6-0.1,2.4-0.3c0.8-0.2,1.7-0.5,2.9-0.9
				c1-0.3,1.6-0.5,2-0.5c0.4,0,0.6,0.2,0.6,0.7c0,1.2-0.4,2.5-1.4,3.8c-0.9,1.3-2.3,2.5-4.2,3.4c-1.8,0.9-4.1,1.4-6.7,1.4
				c-3.8,0-7-1-9.5-2.9c-2.5-1.9-3.7-4.8-3.7-8.5c0-1,0.1-2.3,0.4-3.6c0.9-4.3,2.8-7.5,5.7-9.6c2.9-2.2,6.5-3.2,10.7-3.2
				C81.5,12.1,84.7,12.8,86.7,14.2z M73.1,24.4c1.5,0,2.6-0.7,3.3-2c0.8-1.4,1.1-2.9,1.1-4.5c0-1-0.3-1.5-0.8-1.5
				c-0.4,0-0.8,0.3-1.4,0.9s-1,1.5-1.5,2.7c-0.5,1.2-0.9,2.7-1.3,4.3C72.6,24.4,72.8,24.4,73.1,24.4z"/>
			<path class="st6" d="M116.7,14.6c2.4,1.5,3.6,3.7,3.6,6.7c0,1.1-0.2,2.4-0.6,3.9l-2.1,7.2c0,0.1-0.1,0.3-0.1,0.5
				c0,0.6,0.2,0.8,0.7,0.8c0.4,0,0.8-0.2,1.1-0.5c0.3-0.4,0.5-0.5,0.6-0.5c0.2,0,0.3,0.1,0.4,0.4c0.1,0.2,0.2,0.5,0.2,0.8
				c0,0.9-0.3,1.9-1.1,2.9c-0.7,1-1.7,1.8-3,2.4s-2.6,0.9-4.1,0.9c-1.8,0-3.3-0.3-4.6-1c-1.3-0.7-2.2-1.6-2.7-2.9
				c-1,1.2-2.3,2.2-3.7,2.9c-1.4,0.7-2.9,1-4.6,1c-1.8,0-3.4-0.4-4.6-1.1c-1.2-0.7-2.2-1.6-2.8-2.8c-0.6-1.1-0.9-2.3-0.9-3.6
				c0-0.6,0.1-1.1,0.2-1.6c0.6-2.4,1.8-4.2,3.6-5.4c1.9-1.2,4.1-1.8,6.6-1.8c2.9,0,5.7,0.5,8.5,1.4l1.3-3.4c0.5-1.5,0.7-2.6,0.7-3.4
				c0-0.8-0.3-1.5-0.8-1.9c-0.5-0.4-1.3-0.6-2.4-0.6c0.2,0.6,0.3,1.1,0.3,1.7c0,1.3-0.5,2.4-1.5,3.3c-1,0.9-2.4,1.4-4.2,1.4
				c-1.7,0-3-0.4-4-1.1c-1-0.7-1.4-1.7-1.4-2.8c0-1.7,1-3.2,2.9-4.3c1.9-1.1,4.9-1.7,8.9-1.7C111.2,12.3,114.3,13.1,116.7,14.6z
				 M101.9,29.2c-0.6,0.7-0.9,1.6-0.9,2.4c0,0.6,0.1,1,0.4,1.4c0.3,0.3,0.6,0.5,1.1,0.5c0.5,0,0.9-0.2,1.5-0.5
				c0.5-0.4,0.9-0.9,1.2-1.6l1.1-3.1c-0.6-0.1-1.2-0.2-2-0.2C103.3,28.1,102.5,28.5,101.9,29.2z"/>
			<path class="st6" d="M147.4,13.4c0.4,0.3,0.5,0.7,0.5,1.1c0,0.1,0,0.4-0.1,0.7c-0.5,1.5-1.5,2.3-3.1,2.3h-3l-3.9,12.8
				c-0.2,0.5-0.3,1.1-0.3,1.6c0,0.6,0.2,1.1,0.5,1.3c0.3,0.2,0.8,0.4,1.5,0.4c0.6,0,1.2-0.1,2.1-0.2c0.4-0.1,0.8-0.2,1.1-0.2
				c0.2,0,0.4,0.1,0.5,0.2c0.1,0.2,0.2,0.4,0.2,0.6c0,0.7-0.5,1.5-1.5,2.5c-1.1,1-2.5,1.8-4.3,2.5c-1.8,0.7-3.8,1.1-6,1.1
				c-2.4,0-4.2-0.5-5.7-1.6c-1.4-1.1-2.1-2.5-2.1-4.4c0-0.9,0.1-1.7,0.4-2.5l3.3-10.3c0.2-0.6,0.3-1.1,0.3-1.4
				c0-0.7-0.2-1.3-0.5-1.8c-0.3-0.5-0.8-1-1.4-1.5c-0.5-0.5-0.9-0.9-1.1-1.2c-0.2-0.3-0.3-0.7-0.2-1.2c0.1-0.5,0.4-0.8,0.9-1
				c0.5-0.2,1.2-0.4,2.1-0.4h2.9l3.3-3.3c1.1-1.1,2.2-1.9,3.1-2.4c1-0.5,2.2-0.7,3.7-0.7c2.2,0,3.3,0.8,3.3,2.5c0,0.5-0.1,1-0.2,1.5
				l-0.7,2.4h2.8C146.5,13,147,13.2,147.4,13.4z"/>
			<path class="st6" d="M176.9,32.7c-0.1,0.1-0.1,0.3-0.1,0.6c0,0.2,0.1,0.4,0.2,0.6c0.1,0.1,0.3,0.2,0.5,0.2c0.4,0,0.8-0.2,1.1-0.5
				c0.3-0.4,0.5-0.5,0.6-0.5c0.2,0,0.3,0.1,0.4,0.3c0.1,0.2,0.2,0.5,0.2,0.8c0,1-0.3,2-1,2.9c-0.7,1-1.7,1.7-3,2.3
				c-1.3,0.6-2.9,0.9-4.8,0.9c-2.3,0-4.1-0.5-5.5-1.6c-1.4-1.1-2-2.5-2.1-4.2c0-1.3,0.3-2.7,0.9-4.3l2.9-7.5
				c0.2-0.5,0.3-0.8,0.3-1.1c0-0.5-0.1-0.8-0.4-1.1c-0.3-0.3-0.7-0.4-1.1-0.4c-0.7,0-1.3,0.3-2,0.9c-0.7,0.6-1.2,1.6-1.6,2.9v-0.1
				l-3.3,10.6c-0.1,0.4-0.2,0.8-0.2,1.1c0,0.5,0.1,0.8,0.3,1.1c0.2,0.3,0.4,0.5,0.7,0.8c0.2,0.2,0.4,0.4,0.5,0.6
				c0.1,0.2,0.1,0.4,0.1,0.6c-0.2,0.5-0.5,0.8-1,1s-1.3,0.3-2.4,0.3H145c-0.9,0-1.6-0.1-2-0.4c-0.4-0.3-0.6-0.7-0.4-1.2
				c0.1-0.4,0.5-0.8,1.1-1.1c0.5-0.3,1-0.6,1.3-1c0.3-0.4,0.6-1,0.9-1.8l7.9-25.9c0.1-0.3,0.2-0.6,0.2-0.8c0-0.4-0.1-0.7-0.3-0.9
				c-0.2-0.2-0.4-0.5-0.8-0.7c-0.3-0.3-0.6-0.5-0.8-0.7s-0.2-0.5-0.1-0.8c0.2-0.8,1.3-1.5,3.3-2.1c2-0.6,4-0.9,6.2-0.9
				c2,0,3.5,0.4,4.4,1.1c1,0.8,1.4,1.8,1.4,3.1c0,0.8-0.1,1.5-0.4,2.2l-2.8,9.2c1.4-1.8,2.8-3,4.3-3.7s3.1-1,4.9-1
				c2.1,0,3.8,0.6,5.1,1.9c1.3,1.3,1.9,2.9,1.9,5c0,1.1-0.2,2.1-0.5,3.2L176.9,32.7z"/>
			<path class="st6" d="M209.1,14.2c2,1.4,3,3.2,3,5.4c0,0.7-0.1,1.3-0.2,1.8c-0.5,2.3-2,3.9-4.3,4.9c-2.4,1-5.2,1.5-8.4,1.5
				c-1.6,0-3.2-0.1-4.6-0.3c0,1.8,0.5,3.1,1.5,3.8c1,0.7,2.4,1.1,4.2,1.1c0.8,0,1.6-0.1,2.4-0.3c0.8-0.2,1.7-0.5,2.9-0.9
				c1-0.3,1.6-0.5,2-0.5c0.4,0,0.6,0.2,0.6,0.7c0,1.2-0.4,2.5-1.4,3.8c-0.9,1.3-2.3,2.5-4.2,3.4c-1.8,0.9-4.1,1.4-6.7,1.4
				c-3.8,0-7-1-9.5-2.9c-2.5-1.9-3.7-4.8-3.7-8.5c0-1,0.1-2.3,0.4-3.6c0.9-4.3,2.8-7.5,5.7-9.6c2.9-2.2,6.5-3.2,10.7-3.2
				C203.9,12.1,207.1,12.8,209.1,14.2z M195.5,24.4c1.5,0,2.6-0.7,3.3-2c0.8-1.4,1.1-2.9,1.1-4.5c0-1-0.3-1.5-0.8-1.5
				c-0.4,0-0.8,0.3-1.4,0.9c-0.5,0.6-1,1.5-1.5,2.7c-0.5,1.2-0.9,2.7-1.3,4.3C195,24.4,195.2,24.4,195.5,24.4z"/>
			<path class="st6" d="M241.2,14.1c1.2,1.2,1.7,2.6,1.7,4.4c0,0.7-0.1,1.3-0.2,1.8c-0.3,1.4-1,2.5-2,3.3c-1,0.8-2.1,1.1-3.5,1.1
				c-1.3,0-2.3-0.3-3-0.9c-0.7-0.6-1.3-1.5-1.8-2.5c-0.3-0.6-0.5-1-0.8-1.3c-0.2-0.3-0.5-0.4-0.8-0.4c-0.3,0-0.7,0.1-0.9,0.4
				c-0.3,0.3-0.5,0.8-0.7,1.5l-4,13c-0.1,0.2-0.1,0.4-0.1,0.8c0,0.5,0.1,0.8,0.4,1.1c0.3,0.3,0.6,0.6,1.1,0.9
				c0.4,0.3,0.7,0.5,0.8,0.7s0.2,0.4,0.2,0.7c-0.1,0.5-0.3,0.8-0.8,1c-0.4,0.2-1.2,0.3-2.2,0.3h-13.3c-0.9,0-1.6-0.1-1.9-0.4
				c-0.4-0.3-0.5-0.7-0.4-1.2c0.1-0.4,0.5-0.8,1.1-1.1c0.5-0.3,1-0.6,1.3-1c0.3-0.4,0.6-1,0.9-1.8l4.6-15c0.1-0.2,0.1-0.4,0.1-0.7
				c0-0.4-0.1-0.7-0.2-0.9c-0.2-0.2-0.4-0.5-0.8-0.8c-0.3-0.3-0.6-0.5-0.7-0.7s-0.2-0.5-0.1-0.8c0.2-0.8,1.3-1.5,3.3-2.1
				c2-0.6,4-0.9,6.2-0.9c1.4,0,2.6,0.3,3.5,1c0.9,0.6,1.5,1.6,1.8,2.7c1.7-2.5,3.8-3.7,6.6-3.7C238.5,12.3,240,12.9,241.2,14.1z"/>
		</g>
	</g>
	<g>
		<g>
			<rect x="1.5" y="3" class="st0" width="247.2" height="49.6"/>
		</g>
		<g class="st1">
			<path class="st7" d="M65.9,15c-0.6,0.9-1.3,1.6-2.2,2.1c-0.9,0.5-1.7,0.7-2.6,0.7c-0.8,0-1.6-0.2-2.3-0.6
				c-0.7-0.4-1.2-0.9-1.4-1.4L44.8,36.9c-1,1.6-1.8,2.8-2.6,3.5c-0.8,0.7-1.7,1-2.7,1c-2.3,0-3.6-1.5-4-4.5l-1.7-15.3L23.4,36.9
				c-1.2,1.8-2.2,3-2.9,3.6c-0.7,0.6-1.6,0.9-2.6,0.9c-2.1,0-3.4-1.7-3.8-5l-3.3-23.5c-0.1-0.7-0.3-1.2-0.6-1.7
				C9.8,10.8,9.4,10.4,9,10C8.7,9.7,8.5,9.5,8.3,9.3C8.2,9.1,8.1,8.9,8.1,8.6c-0.2-1.3,0.6-1.9,2.3-1.9h12.9c0.8,0,1.4,0.2,1.8,0.5
				c0.4,0.3,0.6,0.8,0.5,1.3c0,0.3-0.1,0.5-0.2,0.8c-0.2,0.3-0.3,0.5-0.5,0.7c-0.4,0.4-0.7,0.8-0.8,1.2c-0.2,0.4-0.2,0.9-0.2,1.5
				l1.4,12.5l7.8-11.2L33,12.9c-0.1-0.7-0.2-1.2-0.5-1.6c-0.3-0.4-0.7-0.8-1.1-1.2c-0.3-0.3-0.6-0.6-0.7-0.8
				c-0.1-0.2-0.2-0.4-0.2-0.7c-0.2-1.3,0.6-1.9,2.3-1.9h13c0.8,0,1.4,0.2,1.8,0.5S48.1,8,48,8.5c0,0.5-0.2,1-0.7,1.5
				c-0.3,0.4-0.6,0.8-0.8,1.2c-0.2,0.4-0.2,0.9-0.2,1.5l0.6,11.3l7-12.3c1.1-2,2.3-3.4,3.3-4.1c1.1-0.8,2.5-1.2,4.2-1.2
				c1.6,0,2.8,0.5,3.8,1.4c1,0.9,1.5,2.2,1.5,3.8C66.8,13,66.5,14,65.9,15z"/>
			<path class="st7" d="M88.2,15.7c2,1.4,3,3.2,3,5.4c0,0.7-0.1,1.3-0.2,1.8c-0.5,2.3-2,3.9-4.3,4.9c-2.4,1-5.2,1.5-8.4,1.5
				c-1.6,0-3.2-0.1-4.6-0.3c0,1.8,0.4,3.1,1.5,3.8c1,0.7,2.4,1.1,4.2,1.1c0.8,0,1.6-0.1,2.4-0.3c0.8-0.2,1.7-0.5,2.9-0.9
				c1-0.3,1.6-0.5,2-0.5c0.4,0,0.6,0.2,0.6,0.7c0,1.2-0.4,2.5-1.4,3.8c-0.9,1.3-2.3,2.5-4.2,3.4c-1.8,0.9-4.1,1.4-6.7,1.4
				c-3.8,0-7-1-9.5-2.9c-2.5-1.9-3.7-4.8-3.7-8.5c0-1,0.1-2.3,0.4-3.6c0.9-4.3,2.8-7.5,5.7-9.6c2.9-2.2,6.5-3.2,10.7-3.2
				C83,13.6,86.2,14.3,88.2,15.7z M74.6,25.9c1.5,0,2.6-0.7,3.3-2c0.8-1.4,1.1-2.9,1.1-4.5c0-1-0.3-1.5-0.8-1.5
				c-0.4,0-0.8,0.3-1.4,0.9s-1,1.5-1.5,2.7c-0.5,1.2-0.9,2.7-1.3,4.3C74.1,25.9,74.3,25.9,74.6,25.9z"/>
			<path class="st7" d="M118.2,16.1c2.4,1.5,3.6,3.7,3.6,6.7c0,1.1-0.2,2.4-0.6,3.9l-2.1,7.2c0,0.1-0.1,0.3-0.1,0.5
				c0,0.6,0.2,0.8,0.7,0.8c0.4,0,0.8-0.2,1.1-0.5c0.3-0.4,0.5-0.5,0.6-0.5c0.2,0,0.3,0.1,0.4,0.4c0.1,0.2,0.2,0.5,0.2,0.8
				c0,0.9-0.3,1.9-1.1,2.9c-0.7,1-1.7,1.8-3,2.4s-2.6,0.9-4.1,0.9c-1.8,0-3.3-0.3-4.6-1c-1.3-0.7-2.2-1.6-2.7-2.9
				c-1,1.2-2.3,2.2-3.7,2.9c-1.4,0.7-2.9,1-4.6,1c-1.8,0-3.4-0.4-4.6-1.1c-1.2-0.7-2.2-1.6-2.8-2.8c-0.6-1.1-0.9-2.3-0.9-3.6
				c0-0.6,0.1-1.1,0.2-1.6c0.6-2.4,1.8-4.2,3.6-5.4c1.9-1.2,4.1-1.8,6.6-1.8c2.9,0,5.7,0.5,8.5,1.4l1.3-3.4c0.5-1.5,0.7-2.6,0.7-3.4
				c0-0.8-0.3-1.5-0.8-1.9c-0.5-0.4-1.3-0.6-2.4-0.6c0.2,0.6,0.3,1.1,0.3,1.7c0,1.3-0.5,2.4-1.5,3.3c-1,0.9-2.4,1.4-4.2,1.4
				c-1.7,0-3-0.4-4-1.1c-1-0.7-1.4-1.7-1.4-2.8c0-1.7,1-3.2,2.9-4.3c1.9-1.1,4.9-1.7,8.9-1.7C112.7,13.8,115.8,14.6,118.2,16.1z
				 M103.4,30.7c-0.6,0.7-0.9,1.6-0.9,2.4c0,0.6,0.1,1,0.4,1.4c0.3,0.3,0.6,0.5,1.1,0.5c0.5,0,0.9-0.2,1.5-0.5
				c0.5-0.4,0.9-0.9,1.2-1.6l1.1-3.1c-0.6-0.1-1.2-0.2-2-0.2C104.8,29.6,104,30,103.4,30.7z"/>
			<path class="st7" d="M148.9,14.9c0.4,0.3,0.5,0.7,0.5,1.1c0,0.1,0,0.4-0.1,0.7c-0.5,1.5-1.5,2.3-3.1,2.3h-3l-3.9,12.8
				c-0.2,0.5-0.3,1.1-0.3,1.6c0,0.6,0.2,1.1,0.5,1.3c0.3,0.2,0.8,0.4,1.5,0.4c0.6,0,1.2-0.1,2.1-0.2c0.4-0.1,0.8-0.2,1.1-0.2
				c0.2,0,0.4,0.1,0.5,0.2c0.1,0.2,0.2,0.4,0.2,0.6c0,0.7-0.5,1.5-1.5,2.5c-1.1,1-2.5,1.8-4.3,2.5c-1.8,0.7-3.8,1.1-6,1.1
				c-2.4,0-4.2-0.5-5.7-1.6c-1.4-1.1-2.1-2.5-2.1-4.4c0-0.9,0.1-1.7,0.4-2.5l3.3-10.3c0.2-0.6,0.3-1.1,0.3-1.4
				c0-0.7-0.2-1.3-0.5-1.8c-0.3-0.5-0.8-1-1.4-1.5c-0.5-0.5-0.9-0.9-1.1-1.2c-0.2-0.3-0.3-0.7-0.2-1.2c0.1-0.5,0.4-0.8,0.9-1
				c0.5-0.2,1.2-0.4,2.1-0.4h2.9l3.3-3.3c1.1-1.1,2.2-1.9,3.1-2.4c1-0.5,2.2-0.7,3.7-0.7c2.2,0,3.3,0.8,3.3,2.5c0,0.5-0.1,1-0.2,1.5
				l-0.7,2.4h2.8C148,14.5,148.5,14.7,148.9,14.9z"/>
			<path class="st7" d="M178.4,34.2c-0.1,0.1-0.1,0.3-0.1,0.6c0,0.2,0.1,0.4,0.2,0.6c0.1,0.1,0.3,0.2,0.5,0.2c0.4,0,0.8-0.2,1.1-0.5
				c0.3-0.4,0.5-0.5,0.6-0.5c0.2,0,0.3,0.1,0.4,0.3c0.1,0.2,0.2,0.5,0.2,0.8c0,1-0.3,2-1,2.9c-0.7,1-1.7,1.7-3,2.3
				c-1.3,0.6-2.9,0.9-4.8,0.9c-2.3,0-4.1-0.5-5.5-1.6c-1.4-1.1-2-2.5-2.1-4.2c0-1.3,0.3-2.7,0.9-4.3l2.9-7.5
				c0.2-0.5,0.3-0.8,0.3-1.1c0-0.5-0.1-0.8-0.4-1.1c-0.3-0.3-0.7-0.4-1.1-0.4c-0.7,0-1.3,0.3-2,0.9c-0.7,0.6-1.2,1.6-1.6,2.9v-0.1
				l-3.3,10.6c-0.1,0.4-0.2,0.8-0.2,1.1c0,0.5,0.1,0.8,0.3,1.1c0.2,0.3,0.4,0.5,0.7,0.8c0.2,0.2,0.4,0.4,0.5,0.6
				c0.1,0.2,0.1,0.4,0.1,0.6c-0.2,0.5-0.5,0.8-1,1s-1.3,0.3-2.4,0.3h-11.9c-0.9,0-1.6-0.1-2-0.4c-0.4-0.3-0.6-0.7-0.4-1.2
				c0.1-0.4,0.5-0.8,1.1-1.1c0.5-0.3,1-0.6,1.3-1c0.3-0.4,0.6-1,0.9-1.8l7.9-25.9c0.1-0.3,0.2-0.6,0.2-0.8c0-0.4-0.1-0.7-0.3-0.9
				c-0.2-0.2-0.4-0.5-0.8-0.7c-0.3-0.3-0.6-0.5-0.8-0.7s-0.2-0.5-0.1-0.8c0.2-0.8,1.3-1.5,3.3-2.1c2-0.6,4-0.9,6.2-0.9
				c2,0,3.5,0.4,4.4,1.1c1,0.8,1.4,1.8,1.4,3.1c0,0.8-0.1,1.5-0.4,2.2l-2.8,9.2c1.4-1.8,2.8-3,4.3-3.7s3.1-1,4.9-1
				c2.1,0,3.8,0.6,5.1,1.9c1.3,1.3,1.9,2.9,1.9,5c0,1.1-0.2,2.1-0.5,3.2L178.4,34.2z"/>
			<path class="st7" d="M210.6,15.7c2,1.4,3,3.2,3,5.4c0,0.7-0.1,1.3-0.2,1.8c-0.5,2.3-2,3.9-4.3,4.9c-2.4,1-5.2,1.5-8.4,1.5
				c-1.6,0-3.2-0.1-4.6-0.3c0,1.8,0.5,3.1,1.5,3.8c1,0.7,2.4,1.1,4.2,1.1c0.8,0,1.6-0.1,2.4-0.3c0.8-0.2,1.7-0.5,2.9-0.9
				c1-0.3,1.6-0.5,2-0.5c0.4,0,0.6,0.2,0.6,0.7c0,1.2-0.4,2.5-1.4,3.8c-0.9,1.3-2.3,2.5-4.2,3.4c-1.8,0.9-4.1,1.4-6.7,1.4
				c-3.8,0-7-1-9.5-2.9c-2.5-1.9-3.7-4.8-3.7-8.5c0-1,0.1-2.3,0.4-3.6c0.9-4.3,2.8-7.5,5.7-9.6c2.9-2.2,6.5-3.2,10.7-3.2
				C205.4,13.6,208.6,14.3,210.6,15.7z M197,25.9c1.5,0,2.6-0.7,3.3-2c0.8-1.4,1.1-2.9,1.1-4.5c0-1-0.3-1.5-0.8-1.5
				c-0.4,0-0.8,0.3-1.4,0.9c-0.5,0.6-1,1.5-1.5,2.7c-0.5,1.2-0.9,2.7-1.3,4.3C196.5,25.9,196.7,25.9,197,25.9z"/>
			<path class="st7" d="M242.7,15.6c1.2,1.2,1.7,2.6,1.7,4.4c0,0.7-0.1,1.3-0.2,1.8c-0.3,1.4-1,2.5-2,3.3c-1,0.8-2.1,1.1-3.5,1.1
				c-1.3,0-2.3-0.3-3-0.9c-0.7-0.6-1.3-1.5-1.8-2.5c-0.3-0.6-0.5-1-0.8-1.3c-0.2-0.3-0.5-0.4-0.8-0.4c-0.3,0-0.7,0.1-0.9,0.4
				c-0.3,0.3-0.5,0.8-0.7,1.5l-4,13c-0.1,0.2-0.1,0.4-0.1,0.8c0,0.5,0.1,0.8,0.4,1.1c0.3,0.3,0.6,0.6,1.1,0.9
				c0.4,0.3,0.7,0.5,0.8,0.7s0.2,0.4,0.2,0.7c-0.1,0.5-0.3,0.8-0.8,1c-0.4,0.2-1.2,0.3-2.2,0.3h-13.3c-0.9,0-1.6-0.1-1.9-0.4
				c-0.4-0.3-0.5-0.7-0.4-1.2c0.1-0.4,0.5-0.8,1.1-1.1c0.5-0.3,1-0.6,1.3-1c0.3-0.4,0.6-1,0.9-1.8l4.6-15c0.1-0.2,0.1-0.4,0.1-0.7
				c0-0.4-0.1-0.7-0.2-0.9c-0.2-0.2-0.4-0.5-0.8-0.8c-0.3-0.3-0.6-0.5-0.7-0.7s-0.2-0.5-0.1-0.8c0.2-0.8,1.3-1.5,3.3-2.1
				c2-0.6,4-0.9,6.2-0.9c1.4,0,2.6,0.3,3.5,1c0.9,0.6,1.5,1.6,1.8,2.7c1.7-2.5,3.8-3.7,6.6-3.7C240,13.8,241.5,14.4,242.7,15.6z"/>
		</g>
		<g>
			<rect y="1.5" class="st0" width="247.2" height="49.6"/>
		</g>
		<g class="st1">
			<path class="st7" d="M64.4,13.5c-0.6,0.9-1.3,1.6-2.2,2.1c-0.9,0.5-1.7,0.7-2.6,0.7c-0.8,0-1.6-0.2-2.3-0.6
				c-0.7-0.4-1.2-0.9-1.4-1.4L43.3,35.4c-1,1.6-1.8,2.8-2.6,3.5c-0.8,0.7-1.7,1-2.7,1c-2.3,0-3.6-1.5-4-4.5l-1.7-15.3L21.9,35.4
				c-1.2,1.8-2.2,3-2.9,3.6c-0.7,0.6-1.6,0.9-2.6,0.9c-2.1,0-3.4-1.7-3.8-5L9.2,11.4c-0.1-0.7-0.3-1.2-0.6-1.7
				C8.3,9.3,7.9,8.9,7.5,8.5C7.2,8.2,7,8,6.8,7.8C6.7,7.6,6.6,7.4,6.6,7.1C6.4,5.9,7.2,5.2,8.9,5.2h12.9c0.8,0,1.4,0.2,1.8,0.5
				C24,6,24.2,6.5,24.2,7c0,0.3-0.1,0.5-0.2,0.8c-0.2,0.3-0.3,0.5-0.5,0.7c-0.4,0.4-0.7,0.8-0.8,1.2c-0.2,0.4-0.2,0.9-0.2,1.5
				l1.4,12.5l7.8-11.2l-0.2-1.2c-0.1-0.7-0.2-1.2-0.5-1.6c-0.3-0.4-0.7-0.8-1.1-1.2c-0.3-0.3-0.6-0.6-0.7-0.8
				c-0.1-0.2-0.2-0.4-0.2-0.7c-0.2-1.3,0.6-1.9,2.3-1.9h13c0.8,0,1.4,0.2,1.8,0.5s0.6,0.8,0.6,1.3c0,0.5-0.2,1-0.7,1.5
				C45.5,9,45.2,9.4,45,9.7c-0.2,0.4-0.2,0.9-0.2,1.5l0.6,11.3l7-12.3c1.1-2,2.3-3.4,3.3-4.1C56.9,5.4,58.3,5,60,5
				c1.6,0,2.8,0.5,3.8,1.4c1,0.9,1.5,2.2,1.5,3.8C65.3,11.5,65,12.5,64.4,13.5z"/>
			<path class="st7" d="M86.7,14.2c2,1.4,3,3.2,3,5.4c0,0.7-0.1,1.3-0.2,1.8c-0.5,2.3-2,3.9-4.3,4.9c-2.4,1-5.2,1.5-8.4,1.5
				c-1.6,0-3.2-0.1-4.6-0.3c0,1.8,0.4,3.1,1.5,3.8c1,0.7,2.4,1.1,4.2,1.1c0.8,0,1.6-0.1,2.4-0.3c0.8-0.2,1.7-0.5,2.9-0.9
				c1-0.3,1.6-0.5,2-0.5c0.4,0,0.6,0.2,0.6,0.7c0,1.2-0.4,2.5-1.4,3.8c-0.9,1.3-2.3,2.5-4.2,3.4c-1.8,0.9-4.1,1.4-6.7,1.4
				c-3.8,0-7-1-9.5-2.9c-2.5-1.9-3.7-4.8-3.7-8.5c0-1,0.1-2.3,0.4-3.6c0.9-4.3,2.8-7.5,5.7-9.6c2.9-2.2,6.5-3.2,10.7-3.2
				C81.5,12.1,84.7,12.8,86.7,14.2z M73.1,24.4c1.5,0,2.6-0.7,3.3-2c0.8-1.4,1.1-2.9,1.1-4.5c0-1-0.3-1.5-0.8-1.5
				c-0.4,0-0.8,0.3-1.4,0.9s-1,1.5-1.5,2.7c-0.5,1.2-0.9,2.7-1.3,4.3C72.6,24.4,72.8,24.4,73.1,24.4z"/>
			<path class="st7" d="M116.7,14.6c2.4,1.5,3.6,3.7,3.6,6.7c0,1.1-0.2,2.4-0.6,3.9l-2.1,7.2c0,0.1-0.1,0.3-0.1,0.5
				c0,0.6,0.2,0.8,0.7,0.8c0.4,0,0.8-0.2,1.1-0.5c0.3-0.4,0.5-0.5,0.6-0.5c0.2,0,0.3,0.1,0.4,0.4c0.1,0.2,0.2,0.5,0.2,0.8
				c0,0.9-0.3,1.9-1.1,2.9c-0.7,1-1.7,1.8-3,2.4s-2.6,0.9-4.1,0.9c-1.8,0-3.3-0.3-4.6-1c-1.3-0.7-2.2-1.6-2.7-2.9
				c-1,1.2-2.3,2.2-3.7,2.9c-1.4,0.7-2.9,1-4.6,1c-1.8,0-3.4-0.4-4.6-1.1c-1.2-0.7-2.2-1.6-2.8-2.8c-0.6-1.1-0.9-2.3-0.9-3.6
				c0-0.6,0.1-1.1,0.2-1.6c0.6-2.4,1.8-4.2,3.6-5.4c1.9-1.2,4.1-1.8,6.6-1.8c2.9,0,5.7,0.5,8.5,1.4l1.3-3.4c0.5-1.5,0.7-2.6,0.7-3.4
				c0-0.8-0.3-1.5-0.8-1.9c-0.5-0.4-1.3-0.6-2.4-0.6c0.2,0.6,0.3,1.1,0.3,1.7c0,1.3-0.5,2.4-1.5,3.3c-1,0.9-2.4,1.4-4.2,1.4
				c-1.7,0-3-0.4-4-1.1c-1-0.7-1.4-1.7-1.4-2.8c0-1.7,1-3.2,2.9-4.3c1.9-1.1,4.9-1.7,8.9-1.7C111.2,12.3,114.3,13.1,116.7,14.6z
				 M101.9,29.2c-0.6,0.7-0.9,1.6-0.9,2.4c0,0.6,0.1,1,0.4,1.4c0.3,0.3,0.6,0.5,1.1,0.5c0.5,0,0.9-0.2,1.5-0.5
				c0.5-0.4,0.9-0.9,1.2-1.6l1.1-3.1c-0.6-0.1-1.2-0.2-2-0.2C103.3,28.1,102.5,28.5,101.9,29.2z"/>
			<path class="st7" d="M147.4,13.4c0.4,0.3,0.5,0.7,0.5,1.1c0,0.1,0,0.4-0.1,0.7c-0.5,1.5-1.5,2.3-3.1,2.3h-3l-3.9,12.8
				c-0.2,0.5-0.3,1.1-0.3,1.6c0,0.6,0.2,1.1,0.5,1.3c0.3,0.2,0.8,0.4,1.5,0.4c0.6,0,1.2-0.1,2.1-0.2c0.4-0.1,0.8-0.2,1.1-0.2
				c0.2,0,0.4,0.1,0.5,0.2c0.1,0.2,0.2,0.4,0.2,0.6c0,0.7-0.5,1.5-1.5,2.5c-1.1,1-2.5,1.8-4.3,2.5c-1.8,0.7-3.8,1.1-6,1.1
				c-2.4,0-4.2-0.5-5.7-1.6c-1.4-1.1-2.1-2.5-2.1-4.4c0-0.9,0.1-1.7,0.4-2.5l3.3-10.3c0.2-0.6,0.3-1.1,0.3-1.4
				c0-0.7-0.2-1.3-0.5-1.8c-0.3-0.5-0.8-1-1.4-1.5c-0.5-0.5-0.9-0.9-1.1-1.2c-0.2-0.3-0.3-0.7-0.2-1.2c0.1-0.5,0.4-0.8,0.9-1
				c0.5-0.2,1.2-0.4,2.1-0.4h2.9l3.3-3.3c1.1-1.1,2.2-1.9,3.1-2.4c1-0.5,2.2-0.7,3.7-0.7c2.2,0,3.3,0.8,3.3,2.5c0,0.5-0.1,1-0.2,1.5
				l-0.7,2.4h2.8C146.5,13,147,13.2,147.4,13.4z"/>
			<path class="st7" d="M176.9,32.7c-0.1,0.1-0.1,0.3-0.1,0.6c0,0.2,0.1,0.4,0.2,0.6c0.1,0.1,0.3,0.2,0.5,0.2c0.4,0,0.8-0.2,1.1-0.5
				c0.3-0.4,0.5-0.5,0.6-0.5c0.2,0,0.3,0.1,0.4,0.3c0.1,0.2,0.2,0.5,0.2,0.8c0,1-0.3,2-1,2.9c-0.7,1-1.7,1.7-3,2.3
				c-1.3,0.6-2.9,0.9-4.8,0.9c-2.3,0-4.1-0.5-5.5-1.6c-1.4-1.1-2-2.5-2.1-4.2c0-1.3,0.3-2.7,0.9-4.3l2.9-7.5
				c0.2-0.5,0.3-0.8,0.3-1.1c0-0.5-0.1-0.8-0.4-1.1c-0.3-0.3-0.7-0.4-1.1-0.4c-0.7,0-1.3,0.3-2,0.9c-0.7,0.6-1.2,1.6-1.6,2.9v-0.1
				l-3.3,10.6c-0.1,0.4-0.2,0.8-0.2,1.1c0,0.5,0.1,0.8,0.3,1.1c0.2,0.3,0.4,0.5,0.7,0.8c0.2,0.2,0.4,0.4,0.5,0.6
				c0.1,0.2,0.1,0.4,0.1,0.6c-0.2,0.5-0.5,0.8-1,1s-1.3,0.3-2.4,0.3H145c-0.9,0-1.6-0.1-2-0.4c-0.4-0.3-0.6-0.7-0.4-1.2
				c0.1-0.4,0.5-0.8,1.1-1.1c0.5-0.3,1-0.6,1.3-1c0.3-0.4,0.6-1,0.9-1.8l7.9-25.9c0.1-0.3,0.2-0.6,0.2-0.8c0-0.4-0.1-0.7-0.3-0.9
				c-0.2-0.2-0.4-0.5-0.8-0.7c-0.3-0.3-0.6-0.5-0.8-0.7s-0.2-0.5-0.1-0.8c0.2-0.8,1.3-1.5,3.3-2.1c2-0.6,4-0.9,6.2-0.9
				c2,0,3.5,0.4,4.4,1.1c1,0.8,1.4,1.8,1.4,3.1c0,0.8-0.1,1.5-0.4,2.2l-2.8,9.2c1.4-1.8,2.8-3,4.3-3.7s3.1-1,4.9-1
				c2.1,0,3.8,0.6,5.1,1.9c1.3,1.3,1.9,2.9,1.9,5c0,1.1-0.2,2.1-0.5,3.2L176.9,32.7z"/>
			<path class="st7" d="M209.1,14.2c2,1.4,3,3.2,3,5.4c0,0.7-0.1,1.3-0.2,1.8c-0.5,2.3-2,3.9-4.3,4.9c-2.4,1-5.2,1.5-8.4,1.5
				c-1.6,0-3.2-0.1-4.6-0.3c0,1.8,0.5,3.1,1.5,3.8c1,0.7,2.4,1.1,4.2,1.1c0.8,0,1.6-0.1,2.4-0.3c0.8-0.2,1.7-0.5,2.9-0.9
				c1-0.3,1.6-0.5,2-0.5c0.4,0,0.6,0.2,0.6,0.7c0,1.2-0.4,2.5-1.4,3.8c-0.9,1.3-2.3,2.5-4.2,3.4c-1.8,0.9-4.1,1.4-6.7,1.4
				c-3.8,0-7-1-9.5-2.9c-2.5-1.9-3.7-4.8-3.7-8.5c0-1,0.1-2.3,0.4-3.6c0.9-4.3,2.8-7.5,5.7-9.6c2.9-2.2,6.5-3.2,10.7-3.2
				C203.9,12.1,207.1,12.8,209.1,14.2z M195.5,24.4c1.5,0,2.6-0.7,3.3-2c0.8-1.4,1.1-2.9,1.1-4.5c0-1-0.3-1.5-0.8-1.5
				c-0.4,0-0.8,0.3-1.4,0.9c-0.5,0.6-1,1.5-1.5,2.7c-0.5,1.2-0.9,2.7-1.3,4.3C195,24.4,195.2,24.4,195.5,24.4z"/>
			<path class="st7" d="M241.2,14.1c1.2,1.2,1.7,2.6,1.7,4.4c0,0.7-0.1,1.3-0.2,1.8c-0.3,1.4-1,2.5-2,3.3c-1,0.8-2.1,1.1-3.5,1.1
				c-1.3,0-2.3-0.3-3-0.9c-0.7-0.6-1.3-1.5-1.8-2.5c-0.3-0.6-0.5-1-0.8-1.3c-0.2-0.3-0.5-0.4-0.8-0.4c-0.3,0-0.7,0.1-0.9,0.4
				c-0.3,0.3-0.5,0.8-0.7,1.5l-4,13c-0.1,0.2-0.1,0.4-0.1,0.8c0,0.5,0.1,0.8,0.4,1.1c0.3,0.3,0.6,0.6,1.1,0.9
				c0.4,0.3,0.7,0.5,0.8,0.7s0.2,0.4,0.2,0.7c-0.1,0.5-0.3,0.8-0.8,1c-0.4,0.2-1.2,0.3-2.2,0.3h-13.3c-0.9,0-1.6-0.1-1.9-0.4
				c-0.4-0.3-0.5-0.7-0.4-1.2c0.1-0.4,0.5-0.8,1.1-1.1c0.5-0.3,1-0.6,1.3-1c0.3-0.4,0.6-1,0.9-1.8l4.6-15c0.1-0.2,0.1-0.4,0.1-0.7
				c0-0.4-0.1-0.7-0.2-0.9c-0.2-0.2-0.4-0.5-0.8-0.8c-0.3-0.3-0.6-0.5-0.7-0.7s-0.2-0.5-0.1-0.8c0.2-0.8,1.3-1.5,3.3-2.1
				c2-0.6,4-0.9,6.2-0.9c1.4,0,2.6,0.3,3.5,1c0.9,0.6,1.5,1.6,1.8,2.7c1.7-2.5,3.8-3.7,6.6-3.7C238.5,12.3,240,12.9,241.2,14.1z"/>
		</g>
	</g>
	<g>
		<rect y="1.5" class="st0" width="247.2" height="49.6"/>
	</g>
	<g class="st1">
		<path class="st2" d="M64.4,13.5c-0.6,0.9-1.3,1.6-2.2,2.1c-0.9,0.5-1.7,0.7-2.6,0.7c-0.8,0-1.6-0.2-2.3-0.6
			c-0.7-0.4-1.2-0.9-1.4-1.4L43.3,35.4c-1,1.6-1.8,2.8-2.6,3.5c-0.8,0.7-1.7,1-2.7,1c-2.3,0-3.6-1.5-4-4.5l-1.7-15.3L21.9,35.4
			c-1.2,1.8-2.2,3-2.9,3.6c-0.7,0.6-1.6,0.9-2.6,0.9c-2.1,0-3.4-1.7-3.8-5L9.2,11.4c-0.1-0.7-0.3-1.2-0.6-1.7
			C8.3,9.3,7.9,8.9,7.5,8.5C7.2,8.2,7,8,6.8,7.8C6.7,7.6,6.6,7.4,6.6,7.1C6.4,5.9,7.2,5.2,8.9,5.2h12.9c0.8,0,1.4,0.2,1.8,0.5
			C24,6,24.2,6.5,24.2,7c0,0.3-0.1,0.5-0.2,0.8c-0.2,0.3-0.3,0.5-0.5,0.7c-0.4,0.4-0.7,0.8-0.8,1.2c-0.2,0.4-0.2,0.9-0.2,1.5
			l1.4,12.5l7.8-11.2l-0.2-1.2c-0.1-0.7-0.2-1.2-0.5-1.6c-0.3-0.4-0.7-0.8-1.1-1.2c-0.3-0.3-0.6-0.6-0.7-0.8
			c-0.1-0.2-0.2-0.4-0.2-0.7c-0.2-1.3,0.6-1.9,2.3-1.9h13c0.8,0,1.4,0.2,1.8,0.5s0.6,0.8,0.6,1.3c0,0.5-0.2,1-0.7,1.5
			C45.5,9,45.2,9.4,45,9.7c-0.2,0.4-0.2,0.9-0.2,1.5l0.6,11.3l7-12.3c1.1-2,2.3-3.4,3.3-4.1C56.9,5.4,58.3,5,60,5
			c1.6,0,2.8,0.5,3.8,1.4c1,0.9,1.5,2.2,1.5,3.8C65.3,11.5,65,12.5,64.4,13.5z"/>
		<path class="st2" d="M86.7,14.2c2,1.4,3,3.2,3,5.4c0,0.7-0.1,1.3-0.2,1.8c-0.5,2.3-2,3.9-4.3,4.9c-2.4,1-5.2,1.5-8.4,1.5
			c-1.6,0-3.2-0.1-4.6-0.3c0,1.8,0.4,3.1,1.5,3.8c1,0.7,2.4,1.1,4.2,1.1c0.8,0,1.6-0.1,2.4-0.3c0.8-0.2,1.7-0.5,2.9-0.9
			c1-0.3,1.6-0.5,2-0.5c0.4,0,0.6,0.2,0.6,0.7c0,1.2-0.4,2.5-1.4,3.8c-0.9,1.3-2.3,2.5-4.2,3.4c-1.8,0.9-4.1,1.4-6.7,1.4
			c-3.8,0-7-1-9.5-2.9c-2.5-1.9-3.7-4.8-3.7-8.5c0-1,0.1-2.3,0.4-3.6c0.9-4.3,2.8-7.5,5.7-9.6c2.9-2.2,6.5-3.2,10.7-3.2
			C81.5,12.1,84.7,12.8,86.7,14.2z M73.1,24.4c1.5,0,2.6-0.7,3.3-2c0.8-1.4,1.1-2.9,1.1-4.5c0-1-0.3-1.5-0.8-1.5
			c-0.4,0-0.8,0.3-1.4,0.9s-1,1.5-1.5,2.7c-0.5,1.2-0.9,2.7-1.3,4.3C72.6,24.4,72.8,24.4,73.1,24.4z"/>
		<path class="st2" d="M116.7,14.6c2.4,1.5,3.6,3.7,3.6,6.7c0,1.1-0.2,2.4-0.6,3.9l-2.1,7.2c0,0.1-0.1,0.3-0.1,0.5
			c0,0.6,0.2,0.8,0.7,0.8c0.4,0,0.8-0.2,1.1-0.5c0.3-0.4,0.5-0.5,0.6-0.5c0.2,0,0.3,0.1,0.4,0.4c0.1,0.2,0.2,0.5,0.2,0.8
			c0,0.9-0.3,1.9-1.1,2.9c-0.7,1-1.7,1.8-3,2.4s-2.6,0.9-4.1,0.9c-1.8,0-3.3-0.3-4.6-1c-1.3-0.7-2.2-1.6-2.7-2.9
			c-1,1.2-2.3,2.2-3.7,2.9c-1.4,0.7-2.9,1-4.6,1c-1.8,0-3.4-0.4-4.6-1.1c-1.2-0.7-2.2-1.6-2.8-2.8c-0.6-1.1-0.9-2.3-0.9-3.6
			c0-0.6,0.1-1.1,0.2-1.6c0.6-2.4,1.8-4.2,3.6-5.4c1.9-1.2,4.1-1.8,6.6-1.8c2.9,0,5.7,0.5,8.5,1.4l1.3-3.4c0.5-1.5,0.7-2.6,0.7-3.4
			c0-0.8-0.3-1.5-0.8-1.9c-0.5-0.4-1.3-0.6-2.4-0.6c0.2,0.6,0.3,1.1,0.3,1.7c0,1.3-0.5,2.4-1.5,3.3c-1,0.9-2.4,1.4-4.2,1.4
			c-1.7,0-3-0.4-4-1.1c-1-0.7-1.4-1.7-1.4-2.8c0-1.7,1-3.2,2.9-4.3c1.9-1.1,4.9-1.7,8.9-1.7C111.2,12.3,114.3,13.1,116.7,14.6z
			 M101.9,29.2c-0.6,0.7-0.9,1.6-0.9,2.4c0,0.6,0.1,1,0.4,1.4c0.3,0.3,0.6,0.5,1.1,0.5c0.5,0,0.9-0.2,1.5-0.5
			c0.5-0.4,0.9-0.9,1.2-1.6l1.1-3.1c-0.6-0.1-1.2-0.2-2-0.2C103.3,28.1,102.5,28.5,101.9,29.2z"/>
		<path class="st2" d="M147.4,13.4c0.4,0.3,0.5,0.7,0.5,1.1c0,0.1,0,0.4-0.1,0.7c-0.5,1.5-1.5,2.3-3.1,2.3h-3l-3.9,12.8
			c-0.2,0.5-0.3,1.1-0.3,1.6c0,0.6,0.2,1.1,0.5,1.3c0.3,0.2,0.8,0.4,1.5,0.4c0.6,0,1.2-0.1,2.1-0.2c0.4-0.1,0.8-0.2,1.1-0.2
			c0.2,0,0.4,0.1,0.5,0.2c0.1,0.2,0.2,0.4,0.2,0.6c0,0.7-0.5,1.5-1.5,2.5c-1.1,1-2.5,1.8-4.3,2.5c-1.8,0.7-3.8,1.1-6,1.1
			c-2.4,0-4.2-0.5-5.7-1.6c-1.4-1.1-2.1-2.5-2.1-4.4c0-0.9,0.1-1.7,0.4-2.5l3.3-10.3c0.2-0.6,0.3-1.1,0.3-1.4c0-0.7-0.2-1.3-0.5-1.8
			c-0.3-0.5-0.8-1-1.4-1.5c-0.5-0.5-0.9-0.9-1.1-1.2c-0.2-0.3-0.3-0.7-0.2-1.2c0.1-0.5,0.4-0.8,0.9-1c0.5-0.2,1.2-0.4,2.1-0.4h2.9
			l3.3-3.3c1.1-1.1,2.2-1.9,3.1-2.4c1-0.5,2.2-0.7,3.7-0.7c2.2,0,3.3,0.8,3.3,2.5c0,0.5-0.1,1-0.2,1.5l-0.7,2.4h2.8
			C146.5,13,147,13.2,147.4,13.4z"/>
		<path class="st2" d="M176.9,32.7c-0.1,0.1-0.1,0.3-0.1,0.6c0,0.2,0.1,0.4,0.2,0.6c0.1,0.1,0.3,0.2,0.5,0.2c0.4,0,0.8-0.2,1.1-0.5
			c0.3-0.4,0.5-0.5,0.6-0.5c0.2,0,0.3,0.1,0.4,0.3c0.1,0.2,0.2,0.5,0.2,0.8c0,1-0.3,2-1,2.9c-0.7,1-1.7,1.7-3,2.3
			c-1.3,0.6-2.9,0.9-4.8,0.9c-2.3,0-4.1-0.5-5.5-1.6c-1.4-1.1-2-2.5-2.1-4.2c0-1.3,0.3-2.7,0.9-4.3l2.9-7.5c0.2-0.5,0.3-0.8,0.3-1.1
			c0-0.5-0.1-0.8-0.4-1.1c-0.3-0.3-0.7-0.4-1.1-0.4c-0.7,0-1.3,0.3-2,0.9c-0.7,0.6-1.2,1.6-1.6,2.9v-0.1l-3.3,10.6
			c-0.1,0.4-0.2,0.8-0.2,1.1c0,0.5,0.1,0.8,0.3,1.1c0.2,0.3,0.4,0.5,0.7,0.8c0.2,0.2,0.4,0.4,0.5,0.6c0.1,0.2,0.1,0.4,0.1,0.6
			c-0.2,0.5-0.5,0.8-1,1s-1.3,0.3-2.4,0.3H145c-0.9,0-1.6-0.1-2-0.4c-0.4-0.3-0.6-0.7-0.4-1.2c0.1-0.4,0.5-0.8,1.1-1.1
			c0.5-0.3,1-0.6,1.3-1c0.3-0.4,0.6-1,0.9-1.8l7.9-25.9c0.1-0.3,0.2-0.6,0.2-0.8c0-0.4-0.1-0.7-0.3-0.9c-0.2-0.2-0.4-0.5-0.8-0.7
			c-0.3-0.3-0.6-0.5-0.8-0.7s-0.2-0.5-0.1-0.8c0.2-0.8,1.3-1.5,3.3-2.1c2-0.6,4-0.9,6.2-0.9c2,0,3.5,0.4,4.4,1.1
			c1,0.8,1.4,1.8,1.4,3.1c0,0.8-0.1,1.5-0.4,2.2l-2.8,9.2c1.4-1.8,2.8-3,4.3-3.7s3.1-1,4.9-1c2.1,0,3.8,0.6,5.1,1.9
			c1.3,1.3,1.9,2.9,1.9,5c0,1.1-0.2,2.1-0.5,3.2L176.9,32.7z"/>
		<path class="st2" d="M209.1,14.2c2,1.4,3,3.2,3,5.4c0,0.7-0.1,1.3-0.2,1.8c-0.5,2.3-2,3.9-4.3,4.9c-2.4,1-5.2,1.5-8.4,1.5
			c-1.6,0-3.2-0.1-4.6-0.3c0,1.8,0.5,3.1,1.5,3.8c1,0.7,2.4,1.1,4.2,1.1c0.8,0,1.6-0.1,2.4-0.3c0.8-0.2,1.7-0.5,2.9-0.9
			c1-0.3,1.6-0.5,2-0.5c0.4,0,0.6,0.2,0.6,0.7c0,1.2-0.4,2.5-1.4,3.8c-0.9,1.3-2.3,2.5-4.2,3.4c-1.8,0.9-4.1,1.4-6.7,1.4
			c-3.8,0-7-1-9.5-2.9c-2.5-1.9-3.7-4.8-3.7-8.5c0-1,0.1-2.3,0.4-3.6c0.9-4.3,2.8-7.5,5.7-9.6c2.9-2.2,6.5-3.2,10.7-3.2
			C203.9,12.1,207.1,12.8,209.1,14.2z M195.5,24.4c1.5,0,2.6-0.7,3.3-2c0.8-1.4,1.1-2.9,1.1-4.5c0-1-0.3-1.5-0.8-1.5
			c-0.4,0-0.8,0.3-1.4,0.9c-0.5,0.6-1,1.5-1.5,2.7c-0.5,1.2-0.9,2.7-1.3,4.3C195,24.4,195.2,24.4,195.5,24.4z"/>
		<path class="st2" d="M241.2,14.1c1.2,1.2,1.7,2.6,1.7,4.4c0,0.7-0.1,1.3-0.2,1.8c-0.3,1.4-1,2.5-2,3.3c-1,0.8-2.1,1.1-3.5,1.1
			c-1.3,0-2.3-0.3-3-0.9c-0.7-0.6-1.3-1.5-1.8-2.5c-0.3-0.6-0.5-1-0.8-1.3c-0.2-0.3-0.5-0.4-0.8-0.4c-0.3,0-0.7,0.1-0.9,0.4
			c-0.3,0.3-0.5,0.8-0.7,1.5l-4,13c-0.1,0.2-0.1,0.4-0.1,0.8c0,0.5,0.1,0.8,0.4,1.1c0.3,0.3,0.6,0.6,1.1,0.9
			c0.4,0.3,0.7,0.5,0.8,0.7s0.2,0.4,0.2,0.7c-0.1,0.5-0.3,0.8-0.8,1c-0.4,0.2-1.2,0.3-2.2,0.3h-13.3c-0.9,0-1.6-0.1-1.9-0.4
			c-0.4-0.3-0.5-0.7-0.4-1.2c0.1-0.4,0.5-0.8,1.1-1.1c0.5-0.3,1-0.6,1.3-1c0.3-0.4,0.6-1,0.9-1.8l4.6-15c0.1-0.2,0.1-0.4,0.1-0.7
			c0-0.4-0.1-0.7-0.2-0.9c-0.2-0.2-0.4-0.5-0.8-0.8c-0.3-0.3-0.6-0.5-0.7-0.7s-0.2-0.5-0.1-0.8c0.2-0.8,1.3-1.5,3.3-2.1
			c2-0.6,4-0.9,6.2-0.9c1.4,0,2.6,0.3,3.5,1c0.9,0.6,1.5,1.6,1.8,2.7c1.7-2.5,3.8-3.7,6.6-3.7C238.5,12.3,240,12.9,241.2,14.1z"/>
	</g>
</g>
</svg>
